<svg xmlns="http://www.w3.org/2000/svg" viewBox="0 0 83 82.72"><defs><style>.cls-1{fill:#fff;}.cls-2{fill-rule:evenodd;}.cls-3{fill:#fef33d;}</style></defs><title>Asset 2</title><g id="Layer_2" data-name="Layer 2"><g id="Layer_1-2" data-name="Layer 1"><rect class="cls-1" width="83" height="79.61" rx="39.81"/><path d="M10.62,82.72H52.24A4.72,4.72,0,0,0,57,78V62.07h3.56A2.48,2.48,0,0,0,63,59.59V53.4a2.5,2.5,0,0,0-.64-1.65A2.5,2.5,0,0,0,63,50.1V43.91a2.5,2.5,0,0,0-.64-1.66A2.48,2.48,0,0,0,63,40.6V34.41a2.48,2.48,0,0,0-.64-1.65A2.5,2.5,0,0,0,63,31.1V24.91a2.48,2.48,0,0,0-2.48-2.47H57V21.37a4.71,4.71,0,0,0-4.72-4.71H10.62A4.72,4.72,0,0,0,5.9,21.37V78A4.73,4.73,0,0,0,10.62,82.72ZM61.35,34.41V40.6a.83.83,0,0,1-.83.83H57V33.58h3.56A.83.83,0,0,1,61.35,34.41Zm0,9.49v6.19a.83.83,0,0,1-.83.83H57V43.08h3.56A.83.83,0,0,1,61.35,43.9Zm0,15.69a.83.83,0,0,1-.83.83H57V52.57h3.56a.83.83,0,0,1,.83.83Zm-.83-35.51a.83.83,0,0,1,.83.83V31.1a.83.83,0,0,1-.83.83H57V24.08Zm-5.21-2.71V78a3.07,3.07,0,0,1-3.07,3.06H13.74V18.3h38.5A3.08,3.08,0,0,1,55.31,21.37Zm-47.76,0a3.08,3.08,0,0,1,3.07-3.07h1.47V81.06H10.62A3.07,3.07,0,0,1,7.55,78Z"/><path d="M21.33,74.46H47.76a.83.83,0,0,0,.82-.83V61.11a.83.83,0,0,0-.82-.83H21.33a.83.83,0,0,0-.82.83V73.63A.83.83,0,0,0,21.33,74.46Zm.83-12.53H46.93V72.81H22.16Z"/><path d="M41.15,64.55H27.94a.83.83,0,1,0,0,1.65H41.15a.83.83,0,1,0,0-1.65Z"/><path d="M41.15,68.4H27.94a.83.83,0,1,0,0,1.65H41.15a.83.83,0,1,0,0-1.65Z"/><path class="cls-2" d="M34.46,26.76a1.72,1.72,0,0,0-.71.17l-9.07,4.44a1.81,1.81,0,0,0-1,1.63c0,4.52.26,8,1.73,11.12s4.13,5.5,8.27,7.81a1.8,1.8,0,0,0,1.77,0c4.14-2.31,6.79-4.72,8.27-7.81s1.73-6.6,1.73-11.12a1.81,1.81,0,0,0-1-1.63l-9.07-4.44a1.78,1.78,0,0,0-.88-.17Zm.08,3.82,7.24,3.55c-.07,3.6-.4,6.42-1.36,8.43s-3,3.87-5.89,5.66c-2.88-1.79-4.93-3.7-5.86-5.66s-1.16-4.9-1.23-8.5Z"/><path class="cls-1" d="M12.09,18.3H10.62a3.08,3.08,0,0,0-3.07,3.07V78a3.07,3.07,0,0,0,3.07,3.06h1.47Z"/><path class="cls-3" d="M5.9,78V21.37a4.72,4.72,0,0,1,4.72-4.71H52.24a4.73,4.73,0,0,1,2.84.95A5.84,5.84,0,0,0,50.22,15H9.34a5.86,5.86,0,0,0-5.85,5.85V76.46a5.87,5.87,0,0,0,5.09,5.79A4.72,4.72,0,0,1,5.9,78Z"/></g></g></svg>