<svg xmlns="http://www.w3.org/2000/svg" viewBox="0 0 99.04 99.04"><defs><style>.cls-1{fill-rule:evenodd;}</style></defs><title>Facebook</title><g id="Layer_2" data-name="Layer 2"><g id="_16" data-name="16"><path d="M49.92,0A49.52,49.52,0,1,1,14.79,14.22,49.32,49.32,0,0,1,49.92,0ZM82.08,17.51A45.7,45.7,0,1,0,95.17,49.89,45.61,45.61,0,0,0,82.08,17.51Z"/><path class="cls-1" d="M53.38,39.43l0-4.06A2.12,2.12,0,0,1,55.66,33l5.67.05.08-8.67-7.82-.06c-8.69-.07-10.69,6.33-10.72,10.49l0,4.55-5,0-.05,6.12,0,4,5.1,0-.21,25.28,10.12.08.21-25.27,7.48.06.36-4,.66-6.13Z"/></g></g></svg>