<svg xmlns="http://www.w3.org/2000/svg" viewBox="0 0 89.18 81.37"><defs><style>.cls-1{fill:#fff;}.cls-2{fill:#fef33d;}</style></defs><title>Geweld</title><g id="Layer_2" data-name="Layer 2"><g id="Layer_1-2" data-name="Layer 1"><rect class="cls-1" x="6.18" width="83" height="79.61" rx="39.81"/><path class="cls-2" d="M40.86,29.18l9-11.45.75,15.11a2,2,0,0,0,.88,1.53,2.09,2.09,0,0,0,1.75.28L63.77,30,57.35,40.76a.89.89,0,0,0-.08.17,1.38,1.38,0,0,0,1.12,1.8c1.18.18,2.76,0,3.15.2L73.38,48l-11,3.64h0c-.89.3-1.55,1.32-1,2.08l7.36,9L56,58.49a2.05,2.05,0,0,0-2.58,1.33s-.29,1.28,1.33,1.76l15.59,5a2.17,2.17,0,0,0,.62.1,2.05,2.05,0,0,0,1.7-3.2l-7.28-9.58,12-3.66a2.05,2.05,0,0,0,1.31-2.59,2.19,2.19,0,0,0-1.24-1.29L62.1,40.12l7.4-11.75c.34-.53.51-.24.33-.83a2,2,0,0,0-2.56-1.38L54.5,30l-1.21-16.1a2,2,0,0,0-3.63-1.14L39,24.77,31.11,12.84a2,2,0,0,0-3.7,1.05L26.25,32.4a2.05,2.05,0,1,0,4.09.34L31,16.09l9.82,13.09"/><path d="M71,66.66a1.19,1.19,0,0,1-.37-.06L55,61.61a1.23,1.23,0,1,1,.75-2.34L68,63.17l-6-8.88a1.23,1.23,0,0,1,.63-1.86l10.65-3.49L59.41,43a1.25,1.25,0,0,1-.69-.77,1.21,1.21,0,0,1,.14-1l7-11-12,3.61a1.23,1.23,0,0,1-1-.16,1.26,1.26,0,0,1-.53-.93L51.07,17.21,41.49,28.9a1.22,1.22,0,0,1-1.94-.06L31.21,17.42l-.87,15.27a1.23,1.23,0,0,1-2.46-.22l1.17-18.53a1.23,1.23,0,0,1,.9-1.08,1.25,1.25,0,0,1,1.32.46L40.6,26.11,51.11,13.27a1.23,1.23,0,0,1,1.32-.4A1.25,1.25,0,0,1,53.29,14l1.29,17.1,13.75-4.12a1.23,1.23,0,0,1,1.39,1.84l-8,12.53L77.21,48A1.21,1.21,0,0,1,78,49.14a1.23,1.23,0,0,1-.84,1.12l-12.2,4L72,64.74a1.22,1.22,0,0,1,0,1.42A1.24,1.24,0,0,1,71,66.66Z"/><path class="cls-2" d="M49.89,54.07A5.38,5.38,0,0,0,48,52.7a5.23,5.23,0,0,0-.73-5.77,5.43,5.43,0,0,0-2-1.41A5.11,5.11,0,0,0,39,38.35,4.84,4.84,0,0,0,37.8,36.1a5.23,5.23,0,0,0-7.33-.31L22.2,43.12a10.17,10.17,0,0,0-3.48,1.65C12.88,49.94,10.53,53.48,9.14,56a25.85,25.85,0,0,0-1.29,2.77c-.44,1.09-1.26,3.43-2.21,6.14C4,69.62,1.22,77.52.52,78.16A1.57,1.57,0,0,0,0,79.24a1.62,1.62,0,0,0,.38,1.13,1.58,1.58,0,0,0,1.18.51,1.53,1.53,0,0,0,1-.38C4.26,79,10.07,62.11,10.73,60.19a16.21,16.21,0,0,1,1.13-2.66c1.3-2.32,3.49-5.6,8.93-10.43,1.34-1.18,4.44-1.73,6.64-1.85h.22a1.69,1.69,0,0,1,1.64.58l6.09,6.87a4.59,4.59,0,0,1-2.76,1,.57.57,0,0,0-.29,0c-1.37-.17-2.79-1.18-4.73-3.36a1.36,1.36,0,0,0-1.2-.59,1.94,1.94,0,0,0-1,.42L22.19,53a1.57,1.57,0,0,0-.52,1.08,1.59,1.59,0,0,0,.39,1.12c2.52,2.83-.62,8.15-.92,8.62l-.05.09a1.57,1.57,0,0,0,2.69,1.63c0-.06,2.18-6.39-.35-11.08l2.9-.86a12.22,12.22,0,0,0,3.75,2.77,5.05,5.05,0,0,0,1.09,4.77,5.34,5.34,0,0,0,2,1.42,5.26,5.26,0,0,0,2.26,7,33,33,0,0,1-10.08,5.76l-.16.07a13.89,13.89,0,0,0-5.1,2.74,1.56,1.56,0,0,0-.51,1.08A1.53,1.53,0,0,0,20,80.34a1.58,1.58,0,0,0,2.2.13,11.17,11.17,0,0,1,3.8-2l.33-.12c3-1.11,7.1-2.63,14.19-8.91l8.91-7.9a5.4,5.4,0,0,0,1.79-3.75A5,5,0,0,0,49.89,54.07ZM33.11,56.9a10,10,0,0,0,5.53-2.77A1.56,1.56,0,0,0,39.2,53a1.94,1.94,0,0,0-.43-1l-.15-.17,3.29-2.92a2.06,2.06,0,0,1,2.87.17,2,2,0,0,1,.49,1.47,2,2,0,0,1-.66,1.4l-8.34,7.39a2,2,0,0,1-1.46.49,2,2,0,0,1-1.4-.66A2.1,2.1,0,0,1,33.11,56.9Zm3.19,6.51.32-.38,8-7.07a2.07,2.07,0,0,1,2.87.17A2,2,0,0,1,48,57.6a2,2,0,0,1-.67,1.4l-8.47,7.52a2,2,0,0,1-2.68-.25,2.07,2.07,0,0,1,.17-2.86Zm-2.45-17,5.34-4.73a2,2,0,0,1,1.47-.49,2,2,0,0,1,1.22,3.53l-5.33,4.73Zm-6-4.15L32.53,38a2,2,0,0,1,1.47-.5,2,2,0,0,1,1.23,3.54l-3.4,3-.16-.17A5,5,0,0,0,27.82,42.22Zm7.84,10.06Z"/><path d="M22.44,44.52l.11-.09,8.24-7.31a4.75,4.75,0,0,1,6.65.27A4.18,4.18,0,0,1,38.59,40a4.78,4.78,0,0,1,5.54,1,4.7,4.7,0,0,1,.37,5.72,4.6,4.6,0,0,1,2.35,1.46A4.69,4.69,0,0,1,47.22,54a4.66,4.66,0,0,1,2.32,1.41,4.83,4.83,0,0,1-.48,6.76L40.8,69.44l-.32.29-.33.28c-7,6.25-11.1,7.73-14.06,8.83a12.29,12.29,0,0,0-4.26,2.24A1.1,1.1,0,0,1,20.31,81a1.12,1.12,0,0,1,.09-1.53,13.46,13.46,0,0,1,4.94-2.65,34.22,34.22,0,0,0,11-6.41,4.64,4.64,0,0,1-2.1-1.4,4.71,4.71,0,0,1-.37-5.73,4.66,4.66,0,0,1-2.36-1.46,4.51,4.51,0,0,1-.83-4.73,11.34,11.34,0,0,1-4.34-3.16l-1.61,1.43c2.74,4.39-1.2,10.66-1.37,10.91a1.09,1.09,0,0,1-1.87-1.13c.06,0,3.78-6,.91-9.27a1.07,1.07,0,0,1,.1-1.51l3.17-2.82a1.42,1.42,0,0,1,.78-.3.83.83,0,0,1,.74.4c2.05,2.31,3.61,3.42,5.18,3.56a.08.08,0,0,1,.1,0,5.32,5.32,0,0,0,3.6-1.46l-.43-.49,0,0,0-.05-5.91-6.67a2.22,2.22,0,0,0-2.1-.74h-.1c-1.38.07-5.27.44-7,2-5.38,4.77-7.63,8.06-9,10.55A17.92,17.92,0,0,0,10.27,61C9,64.65,3.73,79.81,2.27,81.11A1.12,1.12,0,0,1,.74,81a1.11,1.11,0,0,1,.1-1.52C2,78.46,7,63.22,8.3,59.9a23.83,23.83,0,0,1,1.26-2.71C11,54.56,13.41,51.09,19,46.1A10.27,10.27,0,0,1,22.44,44.52ZM42.2,46a2.51,2.51,0,1,0-3.33-3.76L36.93,44,33.17,47.3l3.34,3.76,3.65-3.24ZM36,64a2.54,2.54,0,0,0-.21,3.55,2.43,2.43,0,0,0,3.34.3l.16-.14.16-.14,8.17-7.25a2.51,2.51,0,1,0-3.33-3.76L38,62.15l-2,1.81Zm-2.93-3.64a2.54,2.54,0,0,0,3.55.22L42.89,55l2-1.81a2.51,2.51,0,0,0-3.34-3.76l-3.65,3.24.47.53h0a1.5,1.5,0,0,1,.31.79,1.1,1.1,0,0,1-.4.74,9.31,9.31,0,0,1-5.5,2.67A2.52,2.52,0,0,0,33.05,60.37ZM31.31,45.2l.48.54,3.76-3.33a2.52,2.52,0,0,0-3.34-3.77l-5.75,5.1c.46,0,.72-.06.92,0A4.53,4.53,0,0,1,31.31,45.2Z"/></g></g></svg>
