<svg xmlns="http://www.w3.org/2000/svg" viewBox="0 0 84 80.61"><defs><style>.cls-1{fill:none;stroke:#fff;stroke-miterlimit:10;}.cls-2{fill:#fef33d;}.cls-3{fill:#fff;}</style></defs><title>Asset 15</title><g id="Layer_2" data-name="Layer 2"><g id="Layer_1-2" data-name="Layer 1"><rect id="cirkel" class="cls-1" x="0.5" y="0.5" width="83" height="79.61" rx="39.81"/><g id="klap"><path id="klap2" class="cls-2" d="M38.11,28.35l8.31-10.57.68,13.94a1.91,1.91,0,0,0,.82,1.42,1.84,1.84,0,0,0,1.61.25l9.72-4.28L53.32,39a.69.69,0,0,0-.07.15,1.28,1.28,0,0,0,1,1.66c1.09.17,2.54,0,2.9.19l10.93,4.69L57.93,49.08h0c-.82.27-1.43,1.21-.92,1.92l6.79,8.3-11.7-3.92a1.9,1.9,0,0,0-2.38,1.23s-.26,1.18,1.22,1.62l14.39,4.6a1.84,1.84,0,0,0,.57.09,1.92,1.92,0,0,0,1.52-.76,1.89,1.89,0,0,0,0-2.19l-6.72-8.84,11.06-3.38A1.9,1.9,0,0,0,73,45.37a2,2,0,0,0-1.15-1.18L57.71,38.44,64.54,27.6c.31-.48.46-.21.3-.77a1.9,1.9,0,0,0-2.36-1.27L50.7,29.09,49.58,14.25a1.9,1.9,0,0,0-3.35-1.06L36.39,24.28l-7.27-11a1.89,1.89,0,0,0-3.42,1L24.63,31.32a1.87,1.87,0,0,0,.44,1.38,1.84,1.84,0,0,0,1.28.67,1.88,1.88,0,0,0,1.38-.43,1.85,1.85,0,0,0,.67-1.31l.65-15.36,9.06,12.08"/><path id="klap1" class="cls-3" d="M65.88,62.93a1,1,0,0,1-.34-.06L51.15,58.28a1.14,1.14,0,0,1,.7-2.17l11.26,3.6-5.53-8.2a1.13,1.13,0,0,1,.58-1.71L68,46.58,55.22,41.1a1.14,1.14,0,0,1-.5-1.66l6.45-10.1-11.1,3.33a1.15,1.15,0,0,1-1-.15,1.17,1.17,0,0,1-.49-.85L47.53,17.31,38.7,28.09a1.17,1.17,0,0,1-.91.42A1.12,1.12,0,0,1,36.9,28L29.21,17.5,28.4,31.59a1.13,1.13,0,0,1-2.26-.2l1.07-17.1a1.14,1.14,0,0,1,2.05-.57l8.61,11.8,9.7-11.85a1.14,1.14,0,0,1,2,.64l1.19,15.78,12.68-3.81a1.16,1.16,0,0,1,1.24.41,1.15,1.15,0,0,1,0,1.29L57.35,39.54l14.3,6.14a1.11,1.11,0,0,1,.68,1.09,1.14,1.14,0,0,1-.78,1L60.3,51.49l6.53,9.67a1.14,1.14,0,0,1-1,1.77Z"/></g><path id="vuis_geel" class="cls-2" d="M46.45,51.32a5,5,0,0,0-1.8-1.27A4.82,4.82,0,0,0,44,44.73a5,5,0,0,0-1.84-1.31,4.71,4.71,0,0,0-5.75-6.61,4.5,4.5,0,0,0-1.1-2.07,4.82,4.82,0,0,0-6.77-.29L20.9,41.21a9.67,9.67,0,0,0-3.22,1.52c-5.38,4.78-7.55,8-8.84,10.35a21.8,21.8,0,0,0-1.18,2.55c-.41,1-1.17,3.17-2,5.67C4.09,65.66,1.54,73,.89,73.54a1.46,1.46,0,0,0-.13,2,1.47,1.47,0,0,0,1.09.48,1.43,1.43,0,0,0,.95-.36c1.54-1.37,6.91-17,7.51-18.74a15.13,15.13,0,0,1,1-2.45c1.2-2.14,3.22-5.17,8.24-9.62,1.23-1.09,4.09-1.6,6.12-1.71h.2a1.56,1.56,0,0,1,1.52.54l5.62,6.33a4.2,4.2,0,0,1-2.55,1,.5.5,0,0,0-.27,0c-1.26-.15-2.57-1.09-4.36-3.09a1.26,1.26,0,0,0-1.11-.55,1.69,1.69,0,0,0-.95.39l-2.93,2.59a1.42,1.42,0,0,0-.48,1,1.38,1.38,0,0,0,.35,1c2.33,2.61-.57,7.52-.84,8l-.05.09a1.45,1.45,0,0,0,2.48,1.5c0-.06,2-5.9-.32-10.23l2.68-.79a11,11,0,0,0,3.46,2.55,4.65,4.65,0,0,0,1,4.41A4.88,4.88,0,0,0,31,59.17a4.8,4.8,0,0,0,.68,5.32,4.9,4.9,0,0,0,1.4,1.12,30.69,30.69,0,0,1-9.29,5.31l-.16.06a13.05,13.05,0,0,0-4.7,2.54,1.44,1.44,0,1,0,1.91,2.15,10.39,10.39,0,0,1,3.5-1.87l.31-.12c2.76-1,6.55-2.41,13.09-8.21L46,58.18a5,5,0,0,0,1.66-3.46A4.63,4.63,0,0,0,46.45,51.32ZM31,53.93a9.32,9.32,0,0,0,5.1-2.56,1.44,1.44,0,0,0,.52-1.08,1.84,1.84,0,0,0-.39-.95L36,49.17l3-2.69A1.86,1.86,0,0,1,42.18,48a1.86,1.86,0,0,1-.61,1.29L33.88,56.1a1.89,1.89,0,0,1-2.64-.16A1.93,1.93,0,0,1,31,53.93Zm2.95,6,.29-.35,7.35-6.52a1.91,1.91,0,0,1,2.65.16,1.88,1.88,0,0,1,.45,1.35A1.86,1.86,0,0,1,44,55.86L36.22,62.8a1.82,1.82,0,0,1-2.93-1.58A1.83,1.83,0,0,1,33.91,59.93ZM31.64,44.22l4.93-4.37a1.87,1.87,0,0,1,2.48,2.8L34.13,47Zm-5.56-3.84,4.35-3.86a1.91,1.91,0,0,1,2.64.16,1.9,1.9,0,0,1-.16,2.65l-3.13,2.78L29.63,42A4.55,4.55,0,0,0,26.08,40.38Zm7.23,9.29Z"/><g id="vuist"><path class="cls-3" d="M21.12,42.5l.1-.08,7.6-6.75a4.39,4.39,0,0,1,6.14.26A3.88,3.88,0,0,1,36,38.33a4.4,4.4,0,0,1,5.11,1,4.34,4.34,0,0,1,.34,5.28,4.28,4.28,0,0,1,2.17,1.35A4.34,4.34,0,0,1,44,51.2a4.35,4.35,0,0,1,2.14,1.31,4.45,4.45,0,0,1-.45,6.23L38.05,65.5l-.29.26-.3.26c-6.5,5.77-10.24,7.14-13,8.15a11.51,11.51,0,0,0-3.93,2.06,1,1,0,0,1-1.4-.08,1,1,0,0,1,.08-1.4,12.46,12.46,0,0,1,4.56-2.45A31.88,31.88,0,0,0,34,66.38,4.23,4.23,0,0,1,32,65.09a4.34,4.34,0,0,1-.34-5.28,4.28,4.28,0,0,1-2.17-1.35,4.15,4.15,0,0,1-.77-4.37,10.4,10.4,0,0,1-4-2.92l-1.49,1.32c2.53,4-1.1,9.84-1.26,10.07a1,1,0,1,1-1.72-1c0-.05,3.48-5.58.84-8.55a1,1,0,0,1,.09-1.4L24.11,49a1.36,1.36,0,0,1,.72-.29.82.82,0,0,1,.69.37c1.89,2.13,3.33,3.16,4.78,3.29a.06.06,0,0,1,.09,0A4.93,4.93,0,0,0,33.71,51l-.4-.45,0-.05,0,0-5.46-6.15a2,2,0,0,0-1.93-.68h-.09c-1.27.06-4.86.41-6.45,1.82-5,4.4-7,7.44-8.33,9.74a14.82,14.82,0,0,0-1.08,2.52c-1.15,3.37-6,17.35-7.39,18.55a1,1,0,0,1-1.4-.08,1,1,0,0,1,.08-1.41c1.08-1,5.64-15,6.89-18.08a22.68,22.68,0,0,1,1.16-2.5C10.58,51.77,12.78,48.57,18,44A9.7,9.7,0,0,1,21.12,42.5Zm18.23,1.38a2.32,2.32,0,1,0-3.08-3.47L34.49,42,31,45.07l3.08,3.47,3.38-3ZM33.61,60.49a2.35,2.35,0,0,0-.2,3.27A2.26,2.26,0,0,0,36.5,64l.15-.13.14-.13,7.54-6.69a2.32,2.32,0,1,0-3.08-3.47l-5.8,5.15-1.88,1.67ZM30.9,57.13a2.36,2.36,0,0,0,3.28.2L40,52.18l1.88-1.67A2.32,2.32,0,1,0,38.78,47l-3.37,3,.44.5h0a1.38,1.38,0,0,1,.29.72,1,1,0,0,1-.37.68,8.66,8.66,0,0,1-5.08,2.47A2.34,2.34,0,0,0,30.9,57.13Zm-1.6-14,.44.49,3.47-3.08a2.32,2.32,0,1,0-3.08-3.47l-5.31,4.71c.43,0,.67-.06.85,0A4.19,4.19,0,0,1,29.3,43.14Z"/></g></g></g></svg>