<svg xmlns="http://www.w3.org/2000/svg" viewBox="0 0 84.66 80.61"><defs><style>.cls-1{fill:none;stroke:#fff;stroke-miterlimit:10;}.cls-2{fill:#fff;}.cls-3{fill:#fef33d;}</style></defs><title>Asset 13</title><g id="Layer_2" data-name="Layer 2"><g id="Layer_1-2" data-name="Layer 1"><rect class="cls-1" x="1.16" y="0.5" width="83" height="79.61" rx="39.81"/><path class="cls-2" d="M49.35,50.49a1.25,1.25,0,0,1-1.25,1.24,1.24,1.24,0,0,1,0-2.48,1.25,1.25,0,0,1,1.25,1.24Z"/><path class="cls-2" d="M65.2,60.51l-8.08-7.34a2.41,2.41,0,0,1-.61-2.68,4,4,0,0,0-.5-4L49.88,38.2C51,36.42,54,30.45,51.4,23.88a.87.87,0,0,0-.73-.54.85.85,0,0,0-.81.41l-.25.4c-1.8,2.93-3.66,6-8.21,6.88,0-2.57-.47-5.67-2-7.61a.85.85,0,0,0-.6-.32.84.84,0,0,0-.64.22C36.82,24.47,28.19,35.81,21,45.68,16.2,52.14,4.88,67.75,2.28,73a.87.87,0,0,0,.39,1.16.92.92,0,0,0,.39.09.87.87,0,0,0,.77-.48c3.64-7.31,25.62-36.93,33.08-46.33a29.57,29.57,0,0,1-2.86,6.25,7.82,7.82,0,0,0-1,5.57.85.85,0,0,0,.84.71l.16,0a.86.86,0,0,0,.7-1,6,6,0,0,1,.79-4.37A30.7,30.7,0,0,0,39,26.38c1.21,3.54.44,8.74.43,8.8a.86.86,0,0,0,.72,1,.87.87,0,0,0,1-.72c0-.12.17-1.17.24-2.65a11.93,11.93,0,0,0,8.06-5.21c-.37,2.82-1.15,6.27-2.63,7.79a.86.86,0,0,0,0,1.22.87.87,0,0,0,1.22,0,12,12,0,0,0,2.48-5.34,16.86,16.86,0,0,1-2.41,6.51.89.89,0,0,0,0,1l6.49,8.81a2.37,2.37,0,0,1,.29,2.28v0A4.12,4.12,0,0,0,56,54.45L64,61.79l0,0a1.11,1.11,0,0,0-.77.35,1.4,1.4,0,0,0,.33,1.94h0l-.07.07a12.3,12.3,0,0,1-13.84,2.32l-3-1.41A7.38,7.38,0,0,0,36.2,71.71v1.7a.87.87,0,0,0,1.73,0V71.72A5.65,5.65,0,0,1,46,66.66l3,1.41a13.8,13.8,0,0,0,5.94,1.34,14,14,0,0,0,9.85-4l.51-.5a3,3,0,0,0-.08-4.41Z"/><path class="cls-3" d="M41.4,31c4.55-.93,6.41-3.95,8.21-6.88l.25-.4a.85.85,0,0,1,1.43,0c-.08-.26-.17-.53-.27-.79a1.79,1.79,0,0,0-1.52-1.13,1.77,1.77,0,0,0-1.7.85l-.24.4c-1.57,2.55-3.07,5-6.27,6.08C41.36,29.74,41.39,30.38,41.4,31Z"/><path class="cls-3" d="M38.76,36.43a1.79,1.79,0,0,0,1.32-.32.85.85,0,0,1-.65-1c0-.06.78-5.26-.43-8.81a27.54,27.54,0,0,1-1.52,4.39,27.93,27.93,0,0,1-.23,3.65,1.8,1.8,0,0,0,1.51,2Z"/><path class="cls-3" d="M2.67,74.1a.88.88,0,0,1-.39-1.16C4.88,67.72,16.2,52.11,21,45.65c7.24-9.87,15.87-21.21,17.16-22.36a.84.84,0,0,1,.64-.22.82.82,0,0,1,.6.32,6.79,6.79,0,0,1,.93,1.54,8.49,8.49,0,0,0-1.45-2.76,1.83,1.83,0,0,0-1.26-.66,1.73,1.73,0,0,0-1.34.45C34.7,23.32,25,36.19,18.94,44.46,14.18,51,2.82,66.6.19,71.9A1.72,1.72,0,0,0,.1,73.27a1.75,1.75,0,0,0,.9,1,1.88,1.88,0,0,0,.8.19h0a1.76,1.76,0,0,0,1.05-.34A.64.64,0,0,1,2.67,74.1Z"/><path class="cls-3" d="M48.13,38.72a.89.89,0,0,1,0-1,16.86,16.86,0,0,0,2.41-6.51,12,12,0,0,1-2.48,5.34.87.87,0,0,1-1.22,0,.86.86,0,0,1,0-1.22c1.48-1.52,2.26-5,2.63-7.79a14,14,0,0,1-2.94,3.07,8.4,8.4,0,0,1-1.62,3.44,1.77,1.77,0,0,0-.51,1.28,1.81,1.81,0,0,0,.55,1.27,1.86,1.86,0,0,0,.92.48,1.82,1.82,0,0,0,.28,1.56S47.63,39.31,48.13,38.72Z"/><path class="cls-3" d="M33,39.2a7.82,7.82,0,0,1,1-5.57,29.57,29.57,0,0,0,2.86-6.25c-1.5,1.89-3.59,4.6-6,7.77a8.84,8.84,0,0,0-.06,3.59,1.79,1.79,0,0,0,1.76,1.48,1.87,1.87,0,0,0,.34,0,1.78,1.78,0,0,0,.73-.32A.83.83,0,0,1,33,39.2Z"/></g></g></svg>