<svg xmlns="http://www.w3.org/2000/svg" viewBox="0 0 83 79.61"><defs><style>.cls-1{fill:#fff;}</style></defs><title>Asset 23</title><g id="Layer_2" data-name="Layer 2"><g id="Layer_1-2" data-name="Layer 1"><rect class="cls-1" width="83" height="79.61" rx="39.81"/><path class="cls-1" d="M33.69,35.61a29.91,29.91,0,0,0,1.62-3C34.2,34,33,35.62,31.61,37.39a8.45,8.45,0,0,0,0,3.17,1.35,1.35,0,0,0,1,1.07.14.14,0,0,0,0-.06A8.45,8.45,0,0,1,33.69,35.61Z"/><path class="cls-1" d="M39.07,30.49c-.23.7-.5,1.4-.79,2.1A29.79,29.79,0,0,1,38,36.31a1.33,1.33,0,0,0,1,1.52,1.24,1.24,0,0,1,0-.51A26.52,26.52,0,0,0,39.07,30.49Z"/><path class="cls-1" d="M46.62,37.24c.92-1,1.69-3,2.21-5.69a13.12,13.12,0,0,1-1.62,1.5,8.12,8.12,0,0,1-1.6,3.19,1.36,1.36,0,0,0,0,1.94,1.33,1.33,0,0,0,.65.32,1.27,1.27,0,0,1-.06-.28A1.34,1.34,0,0,1,46.62,37.24Z"/><path class="cls-1" d="M1.69,75.23c2.63-5.29,14.05-21,18.84-27.56,7.28-9.91,16-21.37,17.35-22.59a1.37,1.37,0,0,1,1-.35,1.26,1.26,0,0,1,.38.1,5,5,0,0,0-.43-.6,1.32,1.32,0,0,0-1-.5,1.34,1.34,0,0,0-1,.34C35.5,25.29,26.8,36.75,19.52,46.67,14.74,53.19,3.31,68.93.68,74.23a1.37,1.37,0,0,0-.07,1,1.41,1.41,0,0,0,.69.79,1.51,1.51,0,0,0,.3.1A1.34,1.34,0,0,1,1.69,75.23Z"/><path class="cls-1" d="M49.37,26l.25-.41A1.39,1.39,0,0,1,50.91,25l.22.05c0-.06,0-.13-.07-.19A1.34,1.34,0,0,0,49.9,24a1.37,1.37,0,0,0-1.29.64l-.25.41c-1.53,2.5-3.14,5.05-6.43,6.26,0,.42.07.86.09,1.31C46,31.56,47.7,28.75,49.37,26Z"/><path class="cls-1" d="M41.93,31.28a11.26,11.26,0,0,0-2.07-6,1.26,1.26,0,0,0-.58-.41A13.4,13.4,0,0,1,41,31.58C41.34,31.5,41.63,31.38,41.93,31.28Z"/><path class="cls-1" d="M41,34.41c-.07,1.26-.2,2.14-.22,2.32a1.38,1.38,0,0,1-1.57,1.15l-.12-.05a1.31,1.31,0,0,0,.23.51,1.34,1.34,0,0,0,.9.54,1.35,1.35,0,0,0,1.56-1.14c0-.18.16-1.06.23-2.32a12.16,12.16,0,0,0,5.22-2.37,22,22,0,0,0,.61-2.51A12.07,12.07,0,0,1,41,34.41Z"/><path class="cls-1" d="M47,38.5a2.52,2.52,0,0,1-.41.06,1.07,1.07,0,0,1-.3-.06,1.25,1.25,0,0,0,.36.68s0,0,0,0a1.35,1.35,0,0,1,.21-.51Z"/><path class="cls-1" d="M38.06,29.48A31.72,31.72,0,0,1,35,36a5.63,5.63,0,0,0-.73,4,1.41,1.41,0,0,1-.22,1,1.38,1.38,0,0,1-.89.58l-.25,0a1.2,1.2,0,0,1-.32-.06A1.37,1.37,0,0,0,34,42.69a1.06,1.06,0,0,0,.25,0,1.37,1.37,0,0,0,1.1-1.6,5.64,5.64,0,0,1,.74-4,34,34,0,0,0,2.23-4.43A19.54,19.54,0,0,0,38.06,29.48Z"/><path d="M48.28,54.57A1.75,1.75,0,0,0,50,52.82a1.78,1.78,0,0,0-1.76-1.76,1.76,1.76,0,0,0-1.76,1.75,1.76,1.76,0,0,0,1.76,1.76Z"/><path d="M65.83,62.54l-8.13-7.4A1.92,1.92,0,0,1,57.21,53a4.58,4.58,0,0,0-.56-4.47l-6-8.13c1.19-2.08,4-8,1.4-14.57a1.37,1.37,0,0,0-2.45-.22l-.25.41C47.7,28.75,46,31.56,42,32.59c-.13-3.28-.86-5.75-2.16-7.35a1.36,1.36,0,0,0-2-.16C36.51,26.3,27.81,37.76,20.53,47.67,15.74,54.2,4.32,69.94,1.69,75.23a1.37,1.37,0,0,0,.62,1.84,1.27,1.27,0,0,0,.6.15h0a1.39,1.39,0,0,0,1.23-.76c3.3-6.64,22-32,31.16-43.9a29.91,29.91,0,0,1-1.62,3,8.45,8.45,0,0,0-1.08,6A1.37,1.37,0,0,0,34,42.69a1.06,1.06,0,0,0,.25,0,1.37,1.37,0,0,0,1.1-1.6,5.64,5.64,0,0,1,.74-4,32.48,32.48,0,0,0,3-6.53,26.52,26.52,0,0,1,0,6.83,1.36,1.36,0,0,0,1.15,1.56,1.35,1.35,0,0,0,1.56-1.14c0-.18.16-1.06.23-2.32a12.16,12.16,0,0,0,6.84-3.87c-.52,2.74-1.29,4.74-2.21,5.69a1.34,1.34,0,0,0-.39,1,1.29,1.29,0,0,0,.42,1,1.36,1.36,0,0,0,1,.39,2.7,2.7,0,0,0,.41-.06l-.12.18a1.37,1.37,0,0,0,0,1.6l6.53,8.87A1.88,1.88,0,0,1,54.66,52a4.65,4.65,0,0,0,1.19,5.18l7.56,6.88a1.8,1.8,0,0,0-.21.19,1.62,1.62,0,0,0-.39,1.19,2,2,0,0,0,.41,1.09,11.91,11.91,0,0,1-13.1,2l-3-1.42a7.93,7.93,0,0,0-11.32,7.11V75.9a1.37,1.37,0,0,0,.4,1,1.35,1.35,0,0,0,1,.4h0a1.38,1.38,0,0,0,1.38-1.37V74.2A5.1,5.1,0,0,1,41,69.86a5.18,5.18,0,0,1,5-.3l3,1.42a14.61,14.61,0,0,0,6.21,1.4h0a14.72,14.72,0,0,0,10.24-4.17l.51-.5A3.55,3.55,0,0,0,67,65.1,3.48,3.48,0,0,0,65.83,62.54Z"/></g></g></svg>