<svg xmlns="http://www.w3.org/2000/svg" viewBox="0 0 115 79.69"><defs><style>.cls-1{fill:#fef33d;}.cls-2{fill:#fff;}</style></defs><title>Leidinggevende</title><g id="Layer_2" data-name="Layer 2"><g id="Layer_1-2" data-name="Layer 1"><path class="cls-1" d="M15.92,33.62H37.21V30.08H15.92a1.83,1.83,0,0,0-1.77,1.77A1.92,1.92,0,0,0,15.92,33.62Z"/><path class="cls-1" d="M61.92,15.92h-46a1.84,1.84,0,0,0-1.77,1.77,1.91,1.91,0,0,0,1.77,1.77h22.6a4.14,4.14,0,0,1,2.86-1.15H63.59a1.6,1.6,0,0,0,.13-.62A1.85,1.85,0,0,0,61.92,15.92Z"/><path class="cls-2" d="M73.42,0h-69A4.45,4.45,0,0,0,0,4.42v40.7a4.45,4.45,0,0,0,4.42,4.42H15V60.15a1.8,1.8,0,0,0,1,1.57,1.7,1.7,0,0,0,.77.2,1.84,1.84,0,0,0,1.08-.38l15.42-12h3.9V46H32.73a1.84,1.84,0,0,0-1.08.36L18.58,56.53V47.77A1.84,1.84,0,0,0,16.81,46H4.42a.84.84,0,0,1-.88-.88V4.42a.84.84,0,0,1,.88-.88h69a.85.85,0,0,1,.89.88v14h3.54v-14A4.46,4.46,0,0,0,73.42,0Z"/><path class="cls-2" d="M41.58,17.77a4.46,4.46,0,0,0-4.43,4.42V62.88a4.46,4.46,0,0,0,4.43,4.43H81.69l15.42,12a1.84,1.84,0,0,0,1.08.38,1.7,1.7,0,0,0,.77-.2,1.8,1.8,0,0,0,1-1.57V67.31h10.62A4.46,4.46,0,0,0,115,62.88V22.19a4.45,4.45,0,0,0-4.42-4.42Zm69.88,4.42V62.88a.84.84,0,0,1-.88.89H98.19a1.84,1.84,0,0,0-1.77,1.77V74.3L83.35,64.13a1.84,1.84,0,0,0-1.08-.36H41.58a.85.85,0,0,1-.89-.89V22.19a.85.85,0,0,1,.89-.88h69A.84.84,0,0,1,111.46,22.19Z"/><path class="cls-1" d="M99.08,33.69h-46a1.77,1.77,0,1,0,0,3.54h46a1.91,1.91,0,0,0,1.77-1.77A1.84,1.84,0,0,0,99.08,33.69Z"/><path class="cls-1" d="M99.08,47.85h-46a1.77,1.77,0,1,0,0,3.53h46a1.91,1.91,0,0,0,1.77-1.76A1.83,1.83,0,0,0,99.08,47.85Z"/></g></g></svg>