<svg xmlns="http://www.w3.org/2000/svg" viewBox="0 0 72.06 82"><defs><style>.cls-1{fill:#fff;}.cls-2,.cls-3{fill:#fef33d;}.cls-2{fill-rule:evenodd;}</style></defs><title>Onderzoek</title><g id="Layer_2" data-name="Layer 2"><g id="Layer_1-2" data-name="Layer 1"><path class="cls-1" d="M8.63,82H59a5.72,5.72,0,0,0,5.72-5.71V57h4.31a3,3,0,0,0,3-3V46.5a3,3,0,0,0-.78-2,3,3,0,0,0,.78-2V35a3,3,0,0,0-.78-2,3,3,0,0,0,.78-2V23.51a3,3,0,0,0-.78-2,3,3,0,0,0,.78-2V12a3,3,0,0,0-3-3H64.75V7.72A5.72,5.72,0,0,0,59,2H8.63A5.71,5.71,0,0,0,2.92,7.72V76.29A5.71,5.71,0,0,0,8.63,82ZM70.06,23.5V31a1,1,0,0,1-1,1H64.75V22.5h4.31A1,1,0,0,1,70.06,23.5Zm0,11.5v7.5a1,1,0,0,1-1,1H64.75V34h4.31A1,1,0,0,1,70.06,35Zm0,19a1,1,0,0,1-1,1H64.75V45.5h4.31a1,1,0,0,1,1,1Zm-1-43a1,1,0,0,1,1,1v7.5a1,1,0,0,1-1,1H64.75V11ZM62.75,7.71V76.28A3.73,3.73,0,0,1,59,80H12.42V4H59A3.72,3.72,0,0,1,62.75,7.71Zm-57.83,0A3.72,3.72,0,0,1,8.63,4h1.79V80H8.63a3.72,3.72,0,0,1-3.71-3.71Z"/><path class="cls-1" d="M21.6,72h32a1,1,0,0,0,1-1V55.83a1,1,0,0,0-1-1h-32a1,1,0,0,0-1,1V71A1,1,0,0,0,21.6,72Zm1-15.17h30V70h-30Z"/><path class="cls-1" d="M45.6,60h-16a1,1,0,1,0,0,2h16a1,1,0,0,0,0-2Z"/><path class="cls-1" d="M45.6,64.67h-16a1,1,0,0,0,0,2h16a1,1,0,1,0,0-2Z"/><path class="cls-2" d="M37.5,14.24a2,2,0,0,0-.86.21l-11,5.37a2.21,2.21,0,0,0-1.23,2c0,5.46.31,9.72,2.1,13.46s5,6.66,10,9.46a2.22,2.22,0,0,0,2.15,0c5-2.8,8.22-5.72,10-9.46s2.1-8,2.1-13.46a2.2,2.2,0,0,0-1.24-2l-11-5.37a2.21,2.21,0,0,0-1.07-.21Zm.1,4.63,8.76,4.29c-.08,4.37-.48,7.78-1.64,10.21s-3.65,4.69-7.13,6.85c-3.49-2.16-6-4.48-7.1-6.85S29.08,27.44,29,23.08Z"/><path class="cls-3" d="M10.42,4H8.63A3.72,3.72,0,0,0,4.92,7.71V76.29A3.72,3.72,0,0,0,8.63,80h1.79Z"/><path class="cls-3" d="M2.92,76.29V7.72A5.71,5.71,0,0,1,8.63,2H59a5.62,5.62,0,0,1,3.44,1.16A7.06,7.06,0,0,0,56.58,0H7.08A7.09,7.09,0,0,0,0,7.08V74.42a7.08,7.08,0,0,0,6.17,7A5.71,5.71,0,0,1,2.92,76.29Z"/></g></g></svg>