<svg xmlns="http://www.w3.org/2000/svg" viewBox="0 0 84 83.22"><defs><style>.cls-1{fill:none;stroke:#fff;stroke-miterlimit:10;}.cls-2,.cls-3{fill:#fff;}.cls-3{fill-rule:evenodd;}.cls-4{fill:#fef33d;}</style></defs><title>Asset 12</title><g id="Layer_2" data-name="Layer 2"><g id="Layer_1-2" data-name="Layer 1"><rect class="cls-1" x="0.5" y="0.5" width="83" height="79.61" rx="39.81"/><path class="cls-2" d="M11.12,83.22H52.74a4.72,4.72,0,0,0,4.72-4.72V62.57H61a2.48,2.48,0,0,0,2.48-2.48V53.9a2.5,2.5,0,0,0-.64-1.65,2.5,2.5,0,0,0,.64-1.65V44.41a2.5,2.5,0,0,0-.64-1.66,2.48,2.48,0,0,0,.64-1.65V34.91a2.48,2.48,0,0,0-.64-1.65,2.5,2.5,0,0,0,.64-1.66V25.41A2.48,2.48,0,0,0,61,22.94H57.46V21.87a4.71,4.71,0,0,0-4.72-4.71H11.12A4.72,4.72,0,0,0,6.4,21.87V78.5A4.73,4.73,0,0,0,11.12,83.22ZM61.85,34.91V41.1a.83.83,0,0,1-.83.83H57.46V34.08H61A.83.83,0,0,1,61.85,34.91Zm0,9.49v6.19a.83.83,0,0,1-.83.83H57.46V43.58H61A.83.83,0,0,1,61.85,44.4Zm0,15.69a.83.83,0,0,1-.83.83H57.46V53.07H61a.83.83,0,0,1,.83.83ZM61,24.58a.83.83,0,0,1,.83.83V31.6a.83.83,0,0,1-.83.83H57.46V24.58Zm-5.21-2.71V78.5a3.07,3.07,0,0,1-3.07,3.06H14.24V18.8h38.5A3.08,3.08,0,0,1,55.81,21.87Zm-47.76,0a3.08,3.08,0,0,1,3.07-3.07h1.47V81.56H11.12A3.07,3.07,0,0,1,8.05,78.5Z"/><path class="cls-2" d="M21.83,75H48.26a.83.83,0,0,0,.82-.83V61.61a.83.83,0,0,0-.82-.83H21.83a.83.83,0,0,0-.82.83V74.13A.83.83,0,0,0,21.83,75Zm.83-12.53H47.43V73.31H22.66Z"/><path class="cls-2" d="M41.65,65.05H28.44a.83.83,0,1,0,0,1.65H41.65a.83.83,0,1,0,0-1.65Z"/><path class="cls-2" d="M41.65,68.9H28.44a.83.83,0,1,0,0,1.65H41.65a.83.83,0,1,0,0-1.65Z"/><path class="cls-3" d="M35,27.26a1.72,1.72,0,0,0-.71.17l-9.07,4.44a1.81,1.81,0,0,0-1,1.63c0,4.52.26,8,1.73,11.12s4.13,5.5,8.27,7.81a1.8,1.8,0,0,0,1.77,0c4.14-2.31,6.79-4.72,8.27-7.81S45.93,38,45.93,33.5a1.81,1.81,0,0,0-1-1.63l-9.07-4.44a1.78,1.78,0,0,0-.88-.17ZM35,31.08l7.24,3.55c-.07,3.6-.4,6.42-1.36,8.43s-3,3.87-5.89,5.66c-2.88-1.79-4.93-3.7-5.86-5.66s-1.16-4.9-1.23-8.5Z"/><path class="cls-2" d="M12.59,18.8H11.12a3.08,3.08,0,0,0-3.07,3.07V78.5a3.07,3.07,0,0,0,3.07,3.06h1.47Z"/><path class="cls-4" d="M6.4,78.5V21.87a4.72,4.72,0,0,1,4.72-4.71H52.74a4.73,4.73,0,0,1,2.84.95,5.84,5.84,0,0,0-4.86-2.61H9.84A5.86,5.86,0,0,0,4,21.35V77a5.87,5.87,0,0,0,5.09,5.79A4.72,4.72,0,0,1,6.4,78.5Z"/></g></g></svg>