<svg xmlns="http://www.w3.org/2000/svg" viewBox="0 0 83 87"><defs><style>.cls-1{fill:#fff;}.cls-2{fill:#fef33d;}</style></defs><title>Asset 4</title><g id="Layer_2" data-name="Layer 2"><g id="Layer_1-2" data-name="Layer 1"><rect class="cls-1" width="83" height="79.61" rx="39.81"/><path class="cls-2" d="M48,39.24A1.55,1.55,0,0,0,48,39a1.6,1.6,0,0,0-.17-.43l-.09-.18c-.23-.35-5.83-7.54-12.16-8.61l-.14,0V21.45a1.92,1.92,0,0,0-1.91-1.91h-7a1.91,1.91,0,0,0-1.9,1.91v7.34h-.06a1.72,1.72,0,0,0-.32,0c-6.34,1.07-11.92,9.26-12.12,9.57l-.1.16a1.74,1.74,0,0,0-.2.49,1.18,1.18,0,0,0,0,.25,1,1,0,0,0,0,.21V81a1.89,1.89,0,0,0,.19.81c.57,1.22,3.55,5.17,18,5.17s17.39-4,18-5.17A1.89,1.89,0,0,0,48,81V39.49A2.13,2.13,0,0,0,48,39.24ZM28.4,28.78V23.36h3.17v5.42ZM16.26,39.14c2.28-2.87,6.59-7,9.44-7.54H35c4.31.41,9.86,5.51,11.48,7.55C44.57,40.32,37.52,43,29.87,43A23.37,23.37,0,0,1,16.26,39.14ZM46.2,50.58a37.43,37.43,0,0,1-16.33,3.85,27.6,27.6,0,0,1-14.33-3.85V43.09c2.66,1.32,7.17,2.72,14.33,2.72s13.67-1.4,16.33-2.72ZM15.54,73c1.62,1,5.53,2.6,14.33,2.6S44.3,74,46.2,71.94v8.39c-.81.71-5.13,3.86-15.33,3.86s-14.52-3.14-15.33-3.84Z"/><path class="cls-2" d="M40.18,22.4a1.18,1.18,0,0,0,.92,0l6.39-2.63a1.2,1.2,0,0,0,.66-.65,1.22,1.22,0,0,0,0-.92h0A1.21,1.21,0,0,0,47,17.46a1.17,1.17,0,0,0-.45.09l-6.4,2.63a1.2,1.2,0,0,0-.65,1.57A1.15,1.15,0,0,0,40.18,22.4Z"/><path class="cls-2" d="M47.49,28.81,41.1,26.18a1.21,1.21,0,0,0-.92,2.24L46.58,31a1.21,1.21,0,0,0,1.57-1.58A1.2,1.2,0,0,0,47.49,28.81Z"/><path class="cls-2" d="M40.91,24.42a1.22,1.22,0,0,0,1.23,1.17l6.92-.18a1.14,1.14,0,0,0,.45-.1,1.19,1.19,0,0,0,.71-1.14,1.17,1.17,0,0,0-.37-.84A1.23,1.23,0,0,0,49,23h0l-6.91.18A1.2,1.2,0,0,0,40.91,24.42Z"/><path d="M47.81,38.47c-.23-.33-5.64-8.27-11.7-9.29a.93.93,0,0,0-.23,0h-.56V21.4A1.39,1.39,0,0,0,33.93,20H27a1.39,1.39,0,0,0-1.39,1.39v7.76h-.32a.86.86,0,0,0-.23,0c-6.07,1-11.48,9-11.71,9.29,0,0,0,.07,0,.1a1.35,1.35,0,0,0-.14.35.9.9,0,0,0,0,.16,1,1,0,0,0,0,.17V80.34a1.39,1.39,0,0,0,.14.6c.38.8,3,4.82,17.32,4.82s17-4,17.33-4.82a1.54,1.54,0,0,0,.13-.6V39.25a1,1,0,0,0,0-.17.88.88,0,0,0,0-.16,1.68,1.68,0,0,0-.16-.39ZM15.91,42c2.45,1.38,7,3,14.68,3s12.23-1.64,14.69-3V79.9c-.63.64-3.74,3.09-14.69,3.09s-14-2.4-14.68-3.11Zm16.64-19.2v6.38H28.41V22.78ZM44.79,39c-1.58,1.1-5.69,3.21-14.2,3.21S18,40.14,16.4,39c1.54-2,5.28-6.4,9-7.1H35.75C39.24,32.59,43,36.63,44.79,39Z"/><path d="M46.93,28.2,40.6,25.6a.68.68,0,0,0-.9.37.69.69,0,0,0,.37.91l6.33,2.6a.85.85,0,0,0,.26.05.69.69,0,0,0,.64-.43A.68.68,0,0,0,46.93,28.2Z"/><path d="M47.3,17.43a.69.69,0,0,0-.64-.43.85.85,0,0,0-.26.05l-6.33,2.6a.69.69,0,0,0-.37.91.68.68,0,0,0,.9.37l6.33-2.6A.68.68,0,0,0,47.3,17.43Z"/><path d="M49.32,23.37a.68.68,0,0,0-.41-.65.58.58,0,0,0-.26-.06l-6.84-.18a.7.7,0,0,0-.71.68.69.69,0,0,0,.67.71l6.84.18A.69.69,0,0,0,49.32,23.37Z"/><path d="M15.91,50.53c2.45,1.38,7,3,14.68,3s12.23-1.64,14.69-3V71.35c-.63.64-3.74,3.09-14.69,3.09s-14-2.39-14.68-3.1Z"/></g></g></svg>