<svg xmlns="http://www.w3.org/2000/svg" viewBox="0 0 84 84.5"><defs><style>.cls-1{fill:none;stroke:#fff;stroke-miterlimit:10;}.cls-2{fill:#fff;}.cls-3{fill:#fef33d;}</style></defs><title>Asset 9</title><g id="Layer_2" data-name="Layer 2"><g id="Layer_1-2" data-name="Layer 1"><rect class="cls-1" x="0.5" y="0.5" width="83" height="79.61" rx="39.81"/><path class="cls-2" d="M50,39.7c-.22-.32-5.35-7.84-11.09-8.81l-.22,0h-.53V23.52a1.31,1.31,0,0,0-1.31-1.31H30.27A1.3,1.3,0,0,0,29,23.52v7.35h-.31l-.22,0c-5.75,1-10.88,8.49-11.09,8.81,0,0,0,.06,0,.09a1.22,1.22,0,0,0-.14.33.77.77,0,0,0,0,.15.9.9,0,0,0,0,.16V79.37a1.39,1.39,0,0,0,.13.56c.36.76,2.85,4.57,16.41,4.57s16.06-3.81,16.42-4.57a1.38,1.38,0,0,0,.12-.56V40.43a.88.88,0,0,0,0-.16.8.8,0,0,0,0-.15,1.2,1.2,0,0,0-.15-.37S50,39.71,50,39.7ZM19.74,43c2.33,1.31,6.62,2.86,13.91,2.86S45.24,44.33,47.57,43V79c-.6.6-3.54,2.92-13.92,2.92S20.4,79.6,19.74,78.93ZM35.51,24.83v6H31.58v-6ZM47.1,40.22c-1.49,1-5.38,3-13.45,3s-11.94-2-13.44-3c1.45-1.89,5-6.06,8.55-6.72h9.79C41.84,34.12,45.37,38,47.1,40.22Z"/><path class="cls-3" d="M39.65,81.56c-1.9.17-4.16.28-6.81.31h.81A52.66,52.66,0,0,0,39.65,81.56Z"/><path class="cls-3" d="M17.24,79.93a1.39,1.39,0,0,1-.13-.56V40.43a.9.9,0,0,1,0-.16.77.77,0,0,1,0-.15,1.22,1.22,0,0,1,.14-.33s0-.07,0-.09c.21-.32,5.34-7.84,11.09-8.81l.22,0H29V23.52a1.3,1.3,0,0,1,1.31-1.31h-1.9a1.31,1.31,0,0,0-1.31,1.31v7.35h-.31l-.22,0c-5.74,1-10.87,8.49-11.09,8.81,0,0,0,.06,0,.09a1.2,1.2,0,0,0-.13.33.8.8,0,0,0,0,.15c0,.06,0,.1,0,.16V79.37a1.38,1.38,0,0,0,.12.56c.37.76,2.85,4.57,16.42,4.57h.95C20,84.32,17.59,80.67,17.24,79.93Z"/><path class="cls-3" d="M49.45,30l-6.67-2.75a.74.74,0,0,0-.56,1.36l6.68,2.74a.66.66,0,0,0,.28.05.72.72,0,0,0,.67-.45A.72.72,0,0,0,49.45,30Z"/><path class="cls-3" d="M50.09,19.76a.72.72,0,0,0-.65-.41.81.81,0,0,0-.27,0l-6.5,2.46a.64.64,0,0,0-.38.86.73.73,0,0,0,.92.36l6.5-2.46A.64.64,0,0,0,50.09,19.76Z"/><path class="cls-3" d="M51.82,25.41a.68.68,0,0,0-.41-.65.58.58,0,0,0-.26-.06l-6.82-.2a.69.69,0,0,0,0,1.38l6.82.19A.68.68,0,0,0,51.82,25.41Z"/><path class="cls-2" d="M49.61,29.87,43.2,27.23a.71.71,0,1,0-.53,1.31l6.41,2.63a.65.65,0,0,0,.27,0,.7.7,0,0,0,.65-.43A.72.72,0,0,0,49.61,29.87Z"/><path class="cls-2" d="M50,19a.7.7,0,0,0-.65-.43.65.65,0,0,0-.27.05l-6.41,2.64a.7.7,0,0,0-.39.91.72.72,0,0,0,.92.39l6.41-2.64A.72.72,0,0,0,50,19Z"/><path class="cls-2" d="M52,25a.69.69,0,0,0-.42-.66.58.58,0,0,0-.26-.06l-6.93-.18a.7.7,0,0,0,0,1.4l6.93.18A.7.7,0,0,0,52,25Z"/></g></g></svg>