<svg xmlns="http://www.w3.org/2000/svg" viewBox="0 0 83 84.74"><defs><style>.cls-1{fill:#fff;}.cls-2{fill-rule:evenodd;}.cls-3{fill:#fef33d;}</style></defs><title>Asset 5</title><g id="Layer_2" data-name="Layer 2"><g id="Layer_1-2" data-name="Layer 1"><rect class="cls-1" width="83" height="79.61" rx="39.81"/><path d="M59.81,44.2a1,1,0,0,0,0-2.08H49.4a1,1,0,1,0,0,2.08Z"/><path d="M18.2,53.28,10.81,78.37h0a1.15,1.15,0,0,1-.12.25,2.07,2.07,0,0,0,1.1,2.91.83.83,0,0,0,.29.12H27.48c.08,0,.57-.06.82-1.59h0a.75.75,0,0,1,0-.16L35,52.56a.35.35,0,0,0,0-.06h0v0a4.75,4.75,0,0,1,4.48-3.56H70.42c.38-.06,2.46-.53,2.5-3.44h0V38.93h-54l-1.38,0c-2.16-.06-3.23-.08-5,2.18a4.51,4.51,0,0,0-.93,1.82,2.26,2.26,0,0,0,0,1.19,2.11,2.11,0,0,0,.7,1,4.42,4.42,0,0,0,1.85.79h0l.1,0c.71.19,5.33,1.64,4,7.29h0s0,.08,0,.12ZM8.85,77.68l7.36-25h0l0,0c.86-3.72-2.06-4.64-2.48-4.75h0A6.48,6.48,0,0,1,11,46.66a4.13,4.13,0,0,1-1.37-1.92,4.19,4.19,0,0,1-.09-2.28,6.57,6.57,0,0,1,1.34-2.68c2.45-3.06,3.86-3,6.71-3H74a1,1,0,0,1,1,1v7.6h0c-.06,4.62-3.66,5.38-4.32,5.49l-.21,0H39.66a2.63,2.63,0,0,0-2.57,1.89.36.36,0,0,0,0,.11h0l-6.7,27.39h0v0c-.52,3.07-2.43,3.29-2.93,3.3H12.2a2.13,2.13,0,0,1-1.37-.36A4,4,0,0,1,8.85,77.68Z"/><polygon points="35.06 57.85 16.08 57.85 16.08 55.76 35.06 55.76 35.06 57.85"/><path d="M49.36,49.79c0,.05,3.08,17.7-15.58,12l.6-2c15.43,4.7,12.94-9.65,12.93-9.7Z"/><path d="M38.14,50.48a1,1,0,1,0-1.89.85c.38.85.83,1.78,1.33,2.7a24.11,24.11,0,0,0,1.64,2.65,1,1,0,0,0,1.68-1.22,22,22,0,0,1-1.49-2.41C38.94,52.18,38.51,51.29,38.14,50.48Z"/><polygon class="cls-2" points="69.26 37.88 67.78 37.88 67.78 35.33 69.26 35.33 69.26 37.88"/><path class="cls-2" d="M28.71,60.77a1.29,1.29,0,1,1-1.29,1.29A1.29,1.29,0,0,1,28.71,60.77Z"/><path class="cls-3" d="M70.6,34.49H17c-3.25-.09-5.23,0-8.06,3.57a8.32,8.32,0,0,0-1.68,3.38,6.06,6.06,0,0,0,.15,3.17,5.75,5.75,0,0,0,1.91,2.7,8.19,8.19,0,0,0,3.41,1.55c.78.22,1.58.83,1.29,2.45l-.07.3L6.61,76.4a5.68,5.68,0,0,0,2.77,7.78,3.58,3.58,0,0,0,2,.55H25.42l2-1H12.2a2.13,2.13,0,0,1-1.37-.36,4,4,0,0,1-2-5.69l7.36-25h0l0,0c.86-3.72-2.06-4.64-2.48-4.75h0A6.48,6.48,0,0,1,11,46.66a4.13,4.13,0,0,1-1.37-1.92,4.19,4.19,0,0,1-.09-2.28,6.57,6.57,0,0,1,1.34-2.68c2.45-3.06,3.86-3,6.71-3H74ZM30.36,80.39h0"/></g></g></svg>