<svg xmlns="http://www.w3.org/2000/svg" viewBox="0 0 84 85.24"><defs><style>.cls-1{fill:none;stroke:#fff;stroke-miterlimit:10;}.cls-2,.cls-3{fill:#fff;}.cls-3{fill-rule:evenodd;}.cls-4{fill:#fef33d;}</style></defs><title>Asset 10</title><g id="Layer_2" data-name="Layer 2"><g id="Layer_1-2" data-name="Layer 1"><rect class="cls-1" x="0.5" y="0.5" width="83" height="79.61" rx="39.81"/><path class="cls-2" d="M60.31,44.7a1,1,0,0,0,0-2.08H49.9a1,1,0,1,0,0,2.08Z"/><path class="cls-2" d="M18.7,53.78,11.31,78.87h0a1.15,1.15,0,0,1-.12.25A2.07,2.07,0,0,0,12.3,82a.83.83,0,0,0,.29.12H28c.08,0,.57-.06.82-1.59h0a.75.75,0,0,1,0-.16l6.69-27.34a.35.35,0,0,0,0-.06h0v0A4.75,4.75,0,0,1,40,49.42H70.92c.38-.06,2.46-.53,2.5-3.44h0V39.43h-54L18,39.4c-2.16-.06-3.23-.08-5,2.18a4.51,4.51,0,0,0-.93,1.82,2.26,2.26,0,0,0,0,1.19,2.11,2.11,0,0,0,.7,1,4.42,4.42,0,0,0,1.85.79h0l.1,0c.71.19,5.33,1.64,4,7.29h0s0,.08,0,.12ZM9.35,78.18l7.36-25h0l0,0c.86-3.72-2.06-4.64-2.48-4.75h0a6.48,6.48,0,0,1-2.71-1.22,4.13,4.13,0,0,1-1.37-1.92A4.19,4.19,0,0,1,10,43a6.57,6.57,0,0,1,1.34-2.68c2.45-3.06,3.86-3,6.71-3H74.46a1,1,0,0,1,1,1V46h0c-.06,4.62-3.66,5.38-4.32,5.49l-.21,0H40.16a2.63,2.63,0,0,0-2.57,1.89.36.36,0,0,0,0,.11h0l-6.7,27.39h0v0c-.52,3.07-2.43,3.29-2.93,3.3H12.7a2.13,2.13,0,0,1-1.37-.36A4,4,0,0,1,9.35,78.18Z"/><polygon class="cls-2" points="35.56 58.35 16.58 58.35 16.58 56.26 35.56 56.26 35.56 58.35"/><path class="cls-2" d="M49.86,50.29c0,.05,3.08,17.7-15.58,12l.6-2c15.43,4.7,12.94-9.65,12.93-9.7Z"/><path class="cls-2" d="M38.64,51a1,1,0,1,0-1.89.85c.38.85.83,1.78,1.33,2.7a24.11,24.11,0,0,0,1.64,2.65A1,1,0,0,0,41.4,56a22,22,0,0,1-1.49-2.41C39.44,52.68,39,51.79,38.64,51Z"/><polygon class="cls-3" points="69.76 38.38 68.28 38.38 68.28 35.83 69.76 35.83 69.76 38.38"/><path class="cls-3" d="M29.21,61.27a1.29,1.29,0,1,1-1.29,1.29A1.29,1.29,0,0,1,29.21,61.27Z"/><path class="cls-4" d="M71.1,35H17.46c-3.25-.09-5.23,0-8.06,3.57a8.32,8.32,0,0,0-1.68,3.38,6.06,6.06,0,0,0,.15,3.17,5.75,5.75,0,0,0,1.91,2.7,8.19,8.19,0,0,0,3.41,1.55c.78.22,1.58.83,1.29,2.45l-.07.3L7.11,76.9a5.68,5.68,0,0,0,2.77,7.78,3.58,3.58,0,0,0,2,.55H25.92l2-1H12.7a2.13,2.13,0,0,1-1.37-.36,4,4,0,0,1-2-5.69l7.36-25h0l0,0c.86-3.72-2.06-4.64-2.48-4.75h0a6.48,6.48,0,0,1-2.71-1.22,4.13,4.13,0,0,1-1.37-1.92A4.19,4.19,0,0,1,10,43a6.57,6.57,0,0,1,1.34-2.68c2.45-3.06,3.86-3,6.71-3H74.46ZM30.86,80.89h0"/></g></g></svg>