<svg xmlns="http://www.w3.org/2000/svg" viewBox="0 0 634.89 285.55"><defs><style>.cls-1{fill:#fff;}.cls-2{fill-rule:evenodd;}</style></defs><title>Titel</title><g id="Layer_2" data-name="Layer 2"><g id="Layer_1-2" data-name="Layer 1"><path class="cls-1" d="M97.46,123.2c0,11.67-8.93,19-23,19H67.22V154.6h-17V104.19H74.49C88.53,104.19,97.46,111.54,97.46,123.2Zm-17.14,0c0-3.67-2.23-5.9-6.91-5.9H67.22v11.81h6.19C78.09,129.11,80.32,126.87,80.32,123.2Z"/><path class="cls-1" d="M151.31,101.17h16.28V154.6H151.31Z"/><path class="cls-1" d="M173.13,103.76c0-4.68,3.81-8.28,9.79-8.28s9.79,3.31,9.79,8c0,5-3.81,8.57-9.79,8.57S173.13,108.44,173.13,103.76Zm1.65,11.45h16.28V154.6H174.78Z"/><path class="cls-1" d="M227.27,153.23c-2.52,1.44-6.19,2.09-10,2.09-10.88,0-17.21-5.12-17.21-16V129.25h-5.41V117.37h5.41v-11h16.27v11h8.06v11.88h-8.06v9.94c0,2.45,1.44,3.81,3.38,3.81a6.65,6.65,0,0,0,3.68-1.08Z"/><path class="cls-1" d="M229.72,103.76c0-4.68,3.81-8.28,9.79-8.28s9.79,3.31,9.79,8c0,5-3.81,8.57-9.79,8.57S229.72,108.44,229.72,103.76Zm1.65,11.45h16.28V154.6H231.37Z"/><path class="cls-1" d="M296.54,138.68H269.18c1.15,3,3.88,4.61,7.92,4.61a12,12,0,0,0,8.2-2.88l8.5,8.57c-3.82,4.18-9.36,6.34-17.21,6.34-14.47,0-23.83-8.72-23.83-20.45,0-12,9.57-20.38,22.32-20.38,11.66,0,21.67,7.06,21.67,20.38C296.75,136,296.61,137.53,296.54,138.68Zm-27.65-7.85h12.67a6.45,6.45,0,0,0-12.67,0Z"/><path class="cls-1" d="M345.86,115.21v31.54c0,15.26-8.93,22.54-24,22.54-7.78,0-14.83-1.66-19.73-4.9l5.47-11.09c3.1,2.38,8.36,3.89,12.6,3.89,6.7,0,9.36-2.95,9.36-8.21v-.72c-2.44,2.81-6,4.18-10.87,4.18-10,0-18.94-7.35-18.94-19s8.93-18.94,18.94-18.94c5.4,0,9.22,1.66,11.67,5.18v-4.46Zm-16.13,18.22c0-3.82-2.88-6.27-6.7-6.27s-6.77,2.45-6.77,6.27,3,6.33,6.77,6.33S329.73,137.24,329.73,133.43Z"/><path class="cls-1" d="M394.75,138.68H367.38c1.16,3,3.89,4.61,7.92,4.61a12.05,12.05,0,0,0,8.21-2.88L392,149c-3.82,4.18-9.36,6.34-17.21,6.34-14.47,0-23.83-8.72-23.83-20.45,0-12,9.57-20.38,22.32-20.38,11.66,0,21.67,7.06,21.67,20.38C395,136,394.82,137.53,394.75,138.68Zm-27.65-7.85h12.67a6.12,6.12,0,0,0-6.34-5.25A6.05,6.05,0,0,0,367.1,130.83Z"/><path class="cls-1" d="M466.53,115.21,452.85,154.6H437l-6-18.22-6.19,18.22H409l-13.68-39.39h15.41L417.5,136l7.05-20.81h13.83l6.84,21,7-21Z"/><path class="cls-1" d="M510.31,138.68H482.94c1.16,3,3.89,4.61,7.92,4.61a12.05,12.05,0,0,0,8.21-2.88l8.5,8.57c-3.82,4.18-9.36,6.34-17.21,6.34-14.47,0-23.84-8.72-23.84-20.45,0-12,9.58-20.38,22.33-20.38,11.66,0,21.67,7.06,21.67,20.38C510.52,136,510.38,137.53,510.31,138.68Zm-27.66-7.85h12.68a6.45,6.45,0,0,0-12.68,0Z"/><path class="cls-1" d="M515.63,101.17H531.9V154.6H515.63Z"/><path class="cls-1" d="M582.66,101.17V154.6H567.18v-3.24c-2.37,2.66-5.9,4-10.8,4-10.29,0-19-7.78-19-20.45s8.72-20.38,19-20.38c4.32,0,7.64,1.08,10,3.38v-16.7Zm-16,33.7c0-5.12-2.81-7.71-6.41-7.71s-6.41,2.59-6.41,7.71,2.81,7.77,6.41,7.77S566.68,140,566.68,134.87Z"/><path class="cls-2" d="M125,89a.86.86,0,0,0-.35.09l-4.57,2.24a.91.91,0,0,0-.51.82,12.78,12.78,0,0,0,.87,5.59,9.22,9.22,0,0,0,4.16,3.93.89.89,0,0,0,.89,0,9.17,9.17,0,0,0,4.16-3.93,12.75,12.75,0,0,0,.87-5.59.91.91,0,0,0-.51-.82l-4.57-2.24A1,1,0,0,0,125,89Z"/><path class="cls-1" d="M139.81,120.23c-2.84,1.55-9.08,2.63-16.35,2.63s-13.77-1.12-16.53-2.72l-.59.55a2.79,2.79,0,0,1-.93-2,3.1,3.1,0,0,1,1.47-2.44v-2.18l-8-8.92a.91.91,0,0,1-.14-1l5.48-11a1,1,0,0,1,.47-.44l20.09-8.21a.78.78,0,0,1,.33-.07h0a.86.86,0,0,1,.36.07l20.09,8.22a.86.86,0,0,1,.47.43L145.91,92a1.74,1.74,0,0,0-.89-.82L124.94,83a1.75,1.75,0,0,0-.68-.13h0a1.68,1.68,0,0,0-.62.13l-20.09,8.22a1.64,1.64,0,0,0-.88.82l-5.48,11a1.7,1.7,0,0,0,.26,1.92l7.82,8.7v1.48a3.66,3.66,0,0,0-1.47,2.82,4,4,0,0,0,2.06,3.27,19.24,19.24,0,0,0-5.45,13.7c0,11.95,9.58,20.45,22.9,20.45s22.89-8.5,22.89-20.45A19.2,19.2,0,0,0,139.81,120.23Zm-16.5,22.41c-3.6,0-6.41-2.66-6.41-7.77s2.81-7.71,6.41-7.71,6.41,2.59,6.41,7.71S126.91,142.64,123.31,142.64Z"/><path d="M340.27,193.32a4.43,4.43,0,0,1,1-2.89,10,10,0,0,1,3.4-2.37,6.66,6.66,0,0,1-1.15-3.48,3.9,3.9,0,0,1,1.19-3,4.39,4.39,0,0,1,3.15-1.13,3.83,3.83,0,0,1,2.66.89,3.07,3.07,0,0,1,1,2.38,3.16,3.16,0,0,1-.36,1.54,4.5,4.5,0,0,1-1,1.21,7.92,7.92,0,0,1-1.43,1l-1.72.93,3.12,4.37a8.29,8.29,0,0,0,2.24-3.32h1.88a13.88,13.88,0,0,1-3.18,4.63l2.28,3H351.1l-1.32-1.86a9.51,9.51,0,0,1-2.58,1.6,7.39,7.39,0,0,1-2.77.49,4.22,4.22,0,0,1-3-1.08A4,4,0,0,1,340.27,193.32Zm4.55,2.51a5.13,5.13,0,0,0,1.89-.37,10,10,0,0,0,2.19-1.4l-3.44-4.86a11.53,11.53,0,0,0-2.07,1.3,4,4,0,0,0-1,1.21,3.25,3.25,0,0,0-.33,1.48,2.53,2.53,0,0,0,.75,1.91A2.72,2.72,0,0,0,344.82,195.83Zm3-13.81a2.41,2.41,0,0,0-1.83.68,2.61,2.61,0,0,0-.66,1.91,4.52,4.52,0,0,0,.92,2.64,17.36,17.36,0,0,0,2.15-1.24,4,4,0,0,0,.93-.95,2.09,2.09,0,0,0,.35-1.17,1.91,1.91,0,0,0-.48-1.37A1.82,1.82,0,0,0,347.81,182Z"/><path d="M368.09,184.65a3.27,3.27,0,0,1,3.15,2.14h.12a24.5,24.5,0,0,1,.5-3.08l.88-4h1.86l-3.7,17.47h-1.57l.25-2.35h-.09a8.26,8.26,0,0,1-2.12,2,4,4,0,0,1-2,.59,3,3,0,0,1-2.44-1.1,4.84,4.84,0,0,1-.88-3.06,11.6,11.6,0,0,1,.81-4.4,7.38,7.38,0,0,1,2.19-3.09A4.85,4.85,0,0,1,368.09,184.65ZM366,195.83a3.24,3.24,0,0,0,2.18-1.05,7.28,7.28,0,0,0,1.78-2.69,8.82,8.82,0,0,0,.66-3.33,2.68,2.68,0,0,0-.61-1.9,2.29,2.29,0,0,0-1.76-.65,3,3,0,0,0-2.11.93,6.74,6.74,0,0,0-1.56,2.6,10.69,10.69,0,0,0-.59,3.54Q363.94,195.83,366,195.83Z"/><path d="M379.71,197.39a4.26,4.26,0,0,1-3.24-1.23,4.65,4.65,0,0,1-1.18-3.39,10.23,10.23,0,0,1,.83-4.05,7.52,7.52,0,0,1,2.22-3,4.84,4.84,0,0,1,3.05-1.08,3.86,3.86,0,0,1,2.58.75,2.58,2.58,0,0,1,.86,2.08,3.56,3.56,0,0,1-1.86,3.17,10.18,10.18,0,0,1-5.34,1.15h-.37l0,.9a3.49,3.49,0,0,0,.69,2.3,2.63,2.63,0,0,0,2.14.82,5.28,5.28,0,0,0,1.45-.2,10.57,10.57,0,0,0,1.86-.74v1.64a9.91,9.91,0,0,1-1.86.69A7.66,7.66,0,0,1,379.71,197.39Zm1.56-11.16a3,3,0,0,0-2.17,1.06,6.85,6.85,0,0,0-1.56,2.93h.14a9.06,9.06,0,0,0,3.92-.67,2.09,2.09,0,0,0,1.37-1.93,1.32,1.32,0,0,0-.41-1A1.81,1.81,0,0,0,381.27,186.23Z"/><path d="M398.73,184.7a4.48,4.48,0,0,1,3.36,1.26,4.73,4.73,0,0,1,1.24,3.48,9.94,9.94,0,0,1-.81,4,6.91,6.91,0,0,1-2.19,2.9,5.12,5.12,0,0,1-3.12,1,4.46,4.46,0,0,1-3.38-1.27,4.76,4.76,0,0,1-1.23-3.47,10,10,0,0,1,.82-4,6.81,6.81,0,0,1,2.22-2.89A5.12,5.12,0,0,1,398.73,184.7Zm2.65,4.48a3.09,3.09,0,0,0-.71-2.1,2.4,2.4,0,0,0-1.9-.8,3.31,3.31,0,0,0-2.2.83,5.53,5.53,0,0,0-1.5,2.31,9.48,9.48,0,0,0-.53,3.28,3.3,3.3,0,0,0,.71,2.28,2.62,2.62,0,0,0,2.05.8,3.08,3.08,0,0,0,2.1-.82,5.38,5.38,0,0,0,1.45-2.33A10.5,10.5,0,0,0,401.38,189.18Z"/><path d="M412.59,197.16l1.67-7.77a10.07,10.07,0,0,0,.22-1.62,1.56,1.56,0,0,0-.4-1.13,1.64,1.64,0,0,0-1.27-.43,3.32,3.32,0,0,0-1.95.68,6,6,0,0,0-1.67,1.92,10,10,0,0,0-1.1,3L407,197.16h-1.89l2.63-12.31h1.56l-.25,2.28h.11a7.42,7.42,0,0,1,2.09-1.93,4.15,4.15,0,0,1,2.08-.57,3.14,3.14,0,0,1,2.25.78,2.86,2.86,0,0,1,.83,2.18,9.4,9.4,0,0,1-.26,2l-1.61,7.54Z"/><path d="M422.12,195.85a6.18,6.18,0,0,0,1.61-.29V197a5,5,0,0,1-.94.26,4.46,4.46,0,0,1-.9.12,3.16,3.16,0,0,1-2.15-.67,2.53,2.53,0,0,1-.74-2,7.79,7.79,0,0,1,.2-1.69l1.42-6.76h-1.93l.16-.82,2.08-.88,1.4-2.56h1.1l-.62,2.83h3.08l-.29,1.43h-3.07l-1.45,6.78a8.51,8.51,0,0,0-.2,1.49,1.3,1.3,0,0,0,.33,1A1.19,1.19,0,0,0,422.12,195.85Z"/><path d="M431.26,197.39a3.2,3.2,0,0,1-1.91-.58,3.46,3.46,0,0,1-1.25-1.56H428l-.78,1.91H425.8l3.71-17.47h1.89c-.39,1.81-.68,3.2-.89,4.16s-.49,2.09-.85,3.37h.11a8.2,8.2,0,0,1,2.06-1.95,4,4,0,0,1,2.09-.62,3,3,0,0,1,2.47,1.11,4.78,4.78,0,0,1,.89,3.06,12,12,0,0,1-.77,4.34,7.25,7.25,0,0,1-2.15,3.11A4.75,4.75,0,0,1,431.26,197.39Zm2.09-11.18a3.28,3.28,0,0,0-2.2,1.07,7.74,7.74,0,0,0-1.77,2.68,8.74,8.74,0,0,0-.66,3.32,2.63,2.63,0,0,0,.63,1.89,2.34,2.34,0,0,0,1.8.66,3,3,0,0,0,2.07-.91,6.42,6.42,0,0,0,1.54-2.59,10.78,10.78,0,0,0,.59-3.57C435.35,187.06,434.68,186.21,433.35,186.21Z"/><path d="M446.86,184.63a5,5,0,0,1,1.35.16l-.41,1.68a4.83,4.83,0,0,0-1.18-.15,3.1,3.1,0,0,0-1.91.68,5.75,5.75,0,0,0-1.56,1.87,9.43,9.43,0,0,0-1,2.65l-1.2,5.64h-1.88l2.62-12.31h1.57l-.25,2.28h.11a10.53,10.53,0,0,1,1.34-1.53,4.33,4.33,0,0,1,1.1-.72A3.19,3.19,0,0,1,446.86,184.63Z"/><path d="M453.05,197.39a4.3,4.3,0,0,1-3.25-1.23,4.69,4.69,0,0,1-1.18-3.39,10.06,10.06,0,0,1,.84-4.05,7.52,7.52,0,0,1,2.22-3,4.81,4.81,0,0,1,3-1.08,3.82,3.82,0,0,1,2.58.75,2.58,2.58,0,0,1,.87,2.08,3.55,3.55,0,0,1-1.87,3.17,10.17,10.17,0,0,1-5.33,1.15h-.37l-.05.9a3.49,3.49,0,0,0,.69,2.3,2.65,2.65,0,0,0,2.14.82,5.35,5.35,0,0,0,1.46-.2,10.57,10.57,0,0,0,1.86-.74v1.64a10.23,10.23,0,0,1-1.87.69A7.57,7.57,0,0,1,453.05,197.39Zm1.56-11.16a3,3,0,0,0-2.18,1.06,7,7,0,0,0-1.55,2.93H451a9.11,9.11,0,0,0,3.93-.67,2.08,2.08,0,0,0,1.36-1.93,1.28,1.28,0,0,0-.41-1A1.8,1.8,0,0,0,454.61,186.23Z"/><path d="M462.57,190.89l5.91-6h2.25l-5.26,5.25,3.31,7.06h-2.1L464,191.28l-1.71,1.38-.92,4.5H459.5l3.71-17.47h1.91c-.54,2.51-1,4.77-1.45,6.76a43.47,43.47,0,0,1-1.14,4.44Z"/><path d="M475.61,197.39a4.3,4.3,0,0,1-3.25-1.23,4.69,4.69,0,0,1-1.18-3.39,10.06,10.06,0,0,1,.84-4.05,7.52,7.52,0,0,1,2.22-3,4.81,4.81,0,0,1,3-1.08,3.82,3.82,0,0,1,2.58.75,2.58,2.58,0,0,1,.87,2.08,3.56,3.56,0,0,1-1.86,3.17,10.21,10.21,0,0,1-5.34,1.15h-.37l0,.9a3.49,3.49,0,0,0,.69,2.3,2.63,2.63,0,0,0,2.14.82,5.33,5.33,0,0,0,1.45-.2,10.57,10.57,0,0,0,1.86-.74v1.64a10,10,0,0,1-1.87.69A7.57,7.57,0,0,1,475.61,197.39Zm1.56-11.16a3,3,0,0,0-2.17,1.06,6.85,6.85,0,0,0-1.56,2.93h.14a9.09,9.09,0,0,0,3.92-.67,2.09,2.09,0,0,0,1.37-1.93,1.32,1.32,0,0,0-.41-1A1.84,1.84,0,0,0,477.17,186.23Z"/><path d="M489.61,197.16l1.67-7.77a10.07,10.07,0,0,0,.22-1.62,1.56,1.56,0,0,0-.4-1.13,1.64,1.64,0,0,0-1.27-.43,3.32,3.32,0,0,0-1.95.68,6.15,6.15,0,0,0-1.68,1.92,10.28,10.28,0,0,0-1.09,3L484,197.16h-1.89l2.63-12.31h1.56l-.25,2.28h.11a7.42,7.42,0,0,1,2.09-1.93,4.15,4.15,0,0,1,2.08-.57,3.14,3.14,0,0,1,2.25.78,2.86,2.86,0,0,1,.83,2.18,9.4,9.4,0,0,1-.26,2l-1.61,7.54Z"/><path d="M501.88,184.65a3.27,3.27,0,0,1,3.15,2.14h.12a24.5,24.5,0,0,1,.5-3.08l.88-4h1.86l-3.7,17.47h-1.57l.25-2.35h-.09a8.42,8.42,0,0,1-2.12,2,4,4,0,0,1-2.05.59,2.93,2.93,0,0,1-2.43-1.1,4.78,4.78,0,0,1-.88-3.06,11.6,11.6,0,0,1,.81-4.4,7.45,7.45,0,0,1,2.18-3.09A4.9,4.9,0,0,1,501.88,184.65Zm-2.14,11.18a3.26,3.26,0,0,0,2.18-1.05,7.4,7.4,0,0,0,1.78-2.69,8.82,8.82,0,0,0,.66-3.33,2.68,2.68,0,0,0-.61-1.9,2.29,2.29,0,0,0-1.76-.65,3,3,0,0,0-2.11.93,6.74,6.74,0,0,0-1.56,2.6,10.69,10.69,0,0,0-.59,3.54Q497.73,195.83,499.74,195.83Z"/><path d="M513.5,197.39a4.3,4.3,0,0,1-3.25-1.23,4.69,4.69,0,0,1-1.17-3.39,10.06,10.06,0,0,1,.83-4.05,7.52,7.52,0,0,1,2.22-3,4.83,4.83,0,0,1,3-1.08,3.87,3.87,0,0,1,2.59.75,2.61,2.61,0,0,1,.86,2.08,3.56,3.56,0,0,1-1.86,3.17,10.21,10.21,0,0,1-5.34,1.15h-.37l0,.9a3.49,3.49,0,0,0,.69,2.3,2.63,2.63,0,0,0,2.14.82,5.33,5.33,0,0,0,1.45-.2,10.57,10.57,0,0,0,1.86-.74v1.64a10.17,10.17,0,0,1-1.86.69A7.66,7.66,0,0,1,513.5,197.39Zm1.56-11.16a3,3,0,0,0-2.17,1.06,6.85,6.85,0,0,0-1.56,2.93h.14a9.09,9.09,0,0,0,3.92-.67,2.09,2.09,0,0,0,1.37-1.93,1.32,1.32,0,0,0-.41-1A1.83,1.83,0,0,0,515.06,186.23Z"/><path d="M531,197.39a4.19,4.19,0,0,1-4.59-4.6,10.31,10.31,0,0,1,.83-4.14,7.05,7.05,0,0,1,2.3-3,5.48,5.48,0,0,1,3.3-1.06,8.29,8.29,0,0,1,3,.57l-.53,1.59a6.24,6.24,0,0,0-2.46-.58,3.54,3.54,0,0,0-2.3.86,5.8,5.8,0,0,0-1.63,2.39,9.33,9.33,0,0,0-.59,3.33,3.14,3.14,0,0,0,.75,2.24,2.7,2.7,0,0,0,2.06.8,5.1,5.1,0,0,0,1.53-.23,12,12,0,0,0,1.41-.53v1.61A6.73,6.73,0,0,1,531,197.39Z"/><path d="M538.2,197.16h-1.89l2.63-12.31h1.88Zm1.27-15.45a1.53,1.53,0,0,1,.35-1,1.24,1.24,0,0,1,.94-.4.88.88,0,0,1,1,1,1.53,1.53,0,0,1-.37,1.05,1.15,1.15,0,0,1-.87.43,1,1,0,0,1-.74-.28A1,1,0,0,1,539.47,181.71Z"/><path d="M540,202.69a3.7,3.7,0,0,1-1.38-.24v-1.58a4.06,4.06,0,0,0,1.34.25c.93,0,1.56-.77,1.88-2.31l3-14h1.86l-3,14.13a5.53,5.53,0,0,1-1.28,2.82A3.25,3.25,0,0,1,540,202.69Zm5.34-21a1.53,1.53,0,0,1,.35-1,1.24,1.24,0,0,1,.94-.4c.64,0,1,.34,1,1a1.53,1.53,0,0,1-.37,1.05,1.15,1.15,0,0,1-.87.43,1,1,0,0,1-.72-.28A1,1,0,0,1,545.31,181.71Z"/><path d="M546.16,202.69a3.93,3.93,0,0,1-1.41-.24v-1.58a4.11,4.11,0,0,0,1.26.25,1.51,1.51,0,0,0,1.32-.7,6.15,6.15,0,0,0,.74-2l2.55-12.15h-2.17l.15-.75,2.31-.74.26-1.13a6.65,6.65,0,0,1,1.43-3.17,3.64,3.64,0,0,1,2.71-.93,6.33,6.33,0,0,1,1.1.13,5.59,5.59,0,0,1,1,.29l-.48,1.45a4.32,4.32,0,0,0-1.54-.33,2,2,0,0,0-1.5.55,4.33,4.33,0,0,0-.85,2l-.28,1.21h2.68l-.28,1.43H552.5l-2.6,12.33a6.35,6.35,0,0,1-1.35,3.1A3.12,3.12,0,0,1,546.16,202.69Z"/><path d="M560.05,197.39a4.26,4.26,0,0,1-3.24-1.23,4.65,4.65,0,0,1-1.18-3.39,10.23,10.23,0,0,1,.83-4.05,7.52,7.52,0,0,1,2.22-3,4.84,4.84,0,0,1,3.05-1.08,3.86,3.86,0,0,1,2.58.75,2.61,2.61,0,0,1,.86,2.08,3.56,3.56,0,0,1-1.86,3.17,10.21,10.21,0,0,1-5.34,1.15h-.37l0,.9a3.49,3.49,0,0,0,.69,2.3,2.63,2.63,0,0,0,2.14.82,5.33,5.33,0,0,0,1.45-.2,10.57,10.57,0,0,0,1.86-.74v1.64a9.91,9.91,0,0,1-1.86.69A7.66,7.66,0,0,1,560.05,197.39Zm1.56-11.16a3,3,0,0,0-2.17,1.06,6.85,6.85,0,0,0-1.56,2.93H558a9.06,9.06,0,0,0,3.92-.67,2.09,2.09,0,0,0,1.37-1.93,1.32,1.32,0,0,0-.41-1A1.83,1.83,0,0,0,561.61,186.23Z"/><path d="M574.31,184.63a4.9,4.9,0,0,1,1.35.16l-.4,1.68a4.83,4.83,0,0,0-1.18-.15,3.15,3.15,0,0,0-1.92.68,6,6,0,0,0-1.56,1.87,9.73,9.73,0,0,0-1,2.65l-1.2,5.64h-1.89l2.63-12.31h1.56l-.25,2.28h.11a11.17,11.17,0,0,1,1.34-1.53,4.21,4.21,0,0,1,1.11-.72A3.11,3.11,0,0,1,574.31,184.63Z"/><path d="M583.23,193.67A3.27,3.27,0,0,1,582,196.4a5.48,5.48,0,0,1-3.5,1,7.39,7.39,0,0,1-3.42-.78v-1.77a7.08,7.08,0,0,0,1.69.73,6.33,6.33,0,0,0,1.69.26,3.38,3.38,0,0,0,2.13-.57,1.73,1.73,0,0,0,.72-1.43,1.56,1.56,0,0,0-.39-1.08,8.29,8.29,0,0,0-1.7-1.2,6.93,6.93,0,0,1-2.07-1.61,3,3,0,0,1-.6-1.86,3.1,3.1,0,0,1,1.13-2.5,4.52,4.52,0,0,1,3-1,8.72,8.72,0,0,1,3.7.83l-.6,1.54-.63-.28a6.29,6.29,0,0,0-2.47-.49,2.54,2.54,0,0,0-1.64.49,1.64,1.64,0,0,0-.2,2.34,7.13,7.13,0,0,0,1.65,1.16,9.74,9.74,0,0,1,1.72,1.16,3.27,3.27,0,0,1,.78,1A3,3,0,0,1,583.23,193.67Z"/><path d="M99.46,125.2c0,11.67-8.93,19-23,19H69.22V156.6h-17V106.19H76.49C90.53,106.19,99.46,113.54,99.46,125.2Zm-17.14,0c0-3.67-2.23-5.9-6.91-5.9H69.22v11.81h6.19C80.09,131.11,82.32,128.87,82.32,125.2Z"/><path d="M153.31,103.17h16.28V156.6H153.31Z"/><path d="M175.13,105.76c0-4.68,3.81-8.28,9.79-8.28s9.79,3.31,9.79,8c0,5-3.81,8.57-9.79,8.57S175.13,110.44,175.13,105.76Zm1.65,11.45h16.28V156.6H176.78Z"/><path d="M229.27,155.23c-2.52,1.44-6.19,2.09-10,2.09-10.88,0-17.21-5.12-17.21-16V131.25h-5.41V119.37h5.41v-11h16.27v11h8.06v11.88h-8.06v9.94c0,2.45,1.44,3.81,3.38,3.81a6.65,6.65,0,0,0,3.68-1.08Z"/><path d="M231.72,105.76c0-4.68,3.81-8.28,9.79-8.28s9.79,3.31,9.79,8c0,5-3.81,8.57-9.79,8.57S231.72,110.44,231.72,105.76Zm1.65,11.45h16.28V156.6H233.37Z"/><path d="M298.54,140.68H271.18c1.15,3,3.88,4.61,7.92,4.61a12,12,0,0,0,8.2-2.88l8.5,8.57c-3.82,4.18-9.36,6.34-17.21,6.34-14.47,0-23.83-8.72-23.83-20.45,0-12,9.57-20.38,22.32-20.38,11.66,0,21.67,7.06,21.67,20.38C298.75,138,298.61,139.53,298.54,140.68Zm-27.65-7.85h12.67a6.45,6.45,0,0,0-12.67,0Z"/><path d="M347.86,117.21v31.54c0,15.26-8.93,22.54-24,22.54-7.78,0-14.83-1.66-19.73-4.9l5.47-11.09c3.1,2.38,8.36,3.89,12.6,3.89,6.7,0,9.36-2.95,9.36-8.21v-.72c-2.44,2.81-6,4.18-10.87,4.18-10,0-18.94-7.35-18.94-19s8.93-18.94,18.94-18.94c5.4,0,9.22,1.66,11.67,5.18v-4.46Zm-16.13,18.22c0-3.82-2.88-6.27-6.7-6.27s-6.77,2.45-6.77,6.27,3,6.33,6.77,6.33S331.73,139.24,331.73,135.43Z"/><path d="M396.75,140.68H369.38c1.16,3,3.89,4.61,7.92,4.61a12.05,12.05,0,0,0,8.21-2.88L394,151c-3.82,4.18-9.36,6.34-17.21,6.34-14.47,0-23.83-8.72-23.83-20.45,0-12,9.57-20.38,22.32-20.38,11.66,0,21.67,7.06,21.67,20.38C397,138,396.82,139.53,396.75,140.68Zm-27.65-7.85h12.67a6.12,6.12,0,0,0-6.34-5.25A6.05,6.05,0,0,0,369.1,132.83Z"/><path d="M468.53,117.21,454.85,156.6H439l-6-18.22-6.19,18.22H411l-13.68-39.39h15.41L419.5,138l7.05-20.81h13.83l6.84,21,7-21Z"/><path d="M512.31,140.68H484.94c1.16,3,3.89,4.61,7.92,4.61a12.05,12.05,0,0,0,8.21-2.88l8.5,8.57c-3.82,4.18-9.36,6.34-17.21,6.34-14.47,0-23.84-8.72-23.84-20.45,0-12,9.58-20.38,22.33-20.38,11.66,0,21.67,7.06,21.67,20.38C512.52,138,512.38,139.53,512.31,140.68Zm-27.66-7.85h12.68a6.45,6.45,0,0,0-12.68,0Z"/><path d="M517.63,103.17H533.9V156.6H517.63Z"/><path d="M584.66,103.17V156.6H569.18v-3.24c-2.37,2.66-5.9,4-10.8,4-10.29,0-19-7.78-19-20.45s8.72-20.38,19-20.38c4.32,0,7.64,1.08,10,3.38v-16.7Zm-16,33.7c0-5.12-2.81-7.71-6.41-7.71s-6.41,2.59-6.41,7.71,2.81,7.77,6.41,7.77S568.68,142,568.68,136.87Z"/><path d="M151.92,103.92l-5.48-11a1.49,1.49,0,0,0-.73-.67l-20.08-8.21a1.33,1.33,0,0,0-.56-.11h0a1.5,1.5,0,0,0-.52.1l-20.09,8.22a1.39,1.39,0,0,0-.73.68l-5.48,11a1.41,1.41,0,0,0,.22,1.58l7.9,8.78V116a3.46,3.46,0,0,0-1.47,2.69,3.81,3.81,0,0,0,2.12,3.15,10.88,10.88,0,0,0,1.41.73,19.21,19.21,0,0,0-6,14.28c0,11.95,9.58,20.45,22.9,20.45s22.89-8.5,22.89-20.45A19.22,19.22,0,0,0,142,122.42a11.26,11.26,0,0,0,1-.56,3.81,3.81,0,0,0,2.12-3.15,3.32,3.32,0,0,0-1.26-2.5l0-2,7.81-8.68A1.4,1.4,0,0,0,151.92,103.92Zm-26.61,40.72c-3.6,0-6.41-2.66-6.41-7.77s2.81-7.71,6.41-7.71,6.41,2.59,6.41,7.71S128.91,144.64,125.31,144.64Zm16.22-25.17a13.69,13.69,0,0,1-3.62,1.43A52.92,52.92,0,0,1,125,122.32a52.86,52.86,0,0,1-12.87-1.42,13.84,13.84,0,0,1-3.62-1.43c-.72-.45-.81-.75-.82-.75h0s.1-.31.82-.77a13.84,13.84,0,0,1,3.62-1.43A53,53,0,0,1,125,115.1a53,53,0,0,1,12.87,1.42,14,14,0,0,1,3.62,1.43c.72.45.81.75.82.75S142.25,119,141.53,119.47Zm-3.7-10a37.79,37.79,0,0,0-12.77-2h-.5a37,37,0,0,0-12.21,2,15,15,0,0,0-3.18,1.59V111a2.06,2.06,0,0,1,.88-1.42,11,11,0,0,1,3.27-1.77,39.91,39.91,0,0,1,23.54,0,11.08,11.08,0,0,1,3.29,1.77A2.07,2.07,0,0,1,141,111v.07A15.74,15.74,0,0,0,137.83,109.49Zm2.79,4.93a18.49,18.49,0,0,0-2-.62,54.41,54.41,0,0,0-13.6-1.53,54.41,54.41,0,0,0-13.6,1.53c-.62.16-1.21.34-1.76.54a3.17,3.17,0,0,1,.41-.41,10.8,10.8,0,0,1,3.25-1.79,35.14,35.14,0,0,1,11.72-1.82,35.7,35.7,0,0,1,11.79,1.82,11.27,11.27,0,0,1,3.3,1.8A4.21,4.21,0,0,1,140.62,114.42Zm3.14-4.31a5.28,5.28,0,0,0-1.76-2.67,13.39,13.39,0,0,0-4.17-2.28,38.06,38.06,0,0,0-12.24-2h-.5a38.2,38.2,0,0,0-12.74,2,13.44,13.44,0,0,0-4.16,2.29,5.2,5.2,0,0,0-1.75,2.69l-5.23-5.81L106,94.7l19.07-7.79,19.06,7.8,4.81,9.62Z"/><path d="M21.68,285.55,0,58.58l2-.19L613.21,0l21.68,227-2,.19ZM4.36,62.18l20.92,219,605.25-57.82-20.92-219Z"/></g></g></svg>