<?xml version="1.0" encoding="utf-8"?>
<!-- Generator: Adobe Illustrator 23.0.1, SVG Export Plug-In . SVG Version: 6.00 Build 0)  -->
<svg version="1.1" id="Layer_1" xmlns="http://www.w3.org/2000/svg" xmlns:xlink="http://www.w3.org/1999/xlink" x="0px" y="0px"
	 viewBox="0 0 1758.3 785.7" style="enable-background:new 0 0 1758.3 785.7;" xml:space="preserve">
<style type="text/css">
	.st0{fill:#FFFFFF;}
	.st1{fill:none;stroke:#000000;stroke-width:3;stroke-miterlimit:10;}
	.st2{fill:none;stroke:#000000;stroke-width:5;stroke-miterlimit:10;}
	.st3{enable-background:new    ;}
	.st4{fill-rule:evenodd;clip-rule:evenodd;}
</style>
<title>Titel_1</title>
<path class="st0" d="M236.2,302c7.6,3.2,14,8.5,18.5,15.4c4.3,6.7,6.5,14.5,6.5,23.4c0.6,16.9-9.4,32.3-25.1,38.7
	c-8,3.6-17.4,5.3-28.2,5.3h-16.9v28.7h-39.4V296.6H208C218.8,296.6,228.2,298.4,236.2,302z M217.5,350.9c2.7-2.4,4-5.8,4-10.1
	c0-4.4-1.3-7.7-4-10.1s-6.7-3.6-12-3.6h-14.4v27.4h14.4C210.8,354.4,214.8,353.2,217.5,350.9L217.5,350.9z"/>
<path class="st0" d="M375,304.1c0,0.1-0.1,0.1-0.1,0.2c-2.8,3-6,5.6-9.5,7.6c-8.5,5.3-21,10.6-35.3,14.5
	c-14.2,3.9-27.4,5.7-37.1,5.4c-3.9,0-7.7-0.6-11.4-1.9c-2.6-1-3.5-2.2-3.7-3c0-0.1,0-0.2,0-0.2c-0.2,0.3-0.3,0.6-0.5,1
	c-0.1,0.2-0.2,0.3-0.2,0.5c0-0.1-0.1-0.1-0.1-0.2c-0.7-2.5,0.3-4.9,2-7.1l-1.5-5.5l-26.2-16.8c-0.8-0.5-1.2-1.5-1-2.5l6.2-31.2
	c0.1-0.6,0.4-1.1,0.9-1.4l44.7-34.3c0.2-0.2,0.5-0.3,0.8-0.4l0,0c0.3-0.1,0.6-0.1,0.9-0.1l55.9,6.8c0.6,0.1,1.1,0.3,1.5,0.8l-1-2.9
	c-0.7-0.8-1.7-1.3-2.8-1.4l-55.9-6.8c-0.6-0.1-1.2,0-1.8,0.1c0,0,0,0,0,0c-0.5,0.2-1,0.4-1.5,0.8l-44.7,34.3
	c-0.9,0.7-1.4,1.6-1.7,2.7l-6.2,31.2c-0.4,1.8,0.4,3.6,2,4.6l25.5,16.4l1,3.7c-1.9,2.7-2.5,5.5-1.8,8.1c0.5,1.8,1.5,3.3,3.1,4.5
	c-12.3,28.6-0.5,62.3,27.6,76.8c10,5.2,21.3,7.8,33.9,7.8c12.6,0,23.9-2.6,33.9-7.8c11.1-5.7,20.1-14.7,25.8-25.8
	C411.2,354.5,401.4,320.4,375,304.1z M359.8,370.5c-2.2,4.2-5.4,7.7-9.4,10.2c-8.2,4.8-18.3,4.8-26.5,0c-4-2.5-7.3-6-9.4-10.2
	c-4.7-9.8-4.7-21.1,0-30.9c1.5-3,3.6-5.6,6.2-7.8c2.5-0.6,5.1-1.2,7.7-1.9c0.1,0-2.8,0.6-7,1.4c0.8-0.7,1.7-1.3,2.6-1.8
	c8.2-4.8,18.3-4.8,26.5,0c4,2.5,7.3,6,9.4,10.2C364.4,349.4,364.4,360.8,359.8,370.5z"/>
<path class="st0" d="M417.4,296.6h39.4V383h52.8v30.6h-92.2V296.6z"/>
<path class="st0" d="M520.4,296.6h39.4v116.9h-39.4V296.6z"/>
<path class="st0" d="M604.2,327.2H570v-30.6h107.9v30.6h-34.2v86.3h-39.4V327.2z"/>
<path class="st0" d="M688.1,296.6h39.4v116.9h-39.4V296.6z"/>
<path class="st0" d="M843.7,383.8v29.7h-97.2V296.6h95v29.7h-56.2v13.7h49.4v28.4h-49.4v15.4H843.7z"/>
<path class="st0" d="M936.2,351.9h34.2v49.4c-7.3,5-15.5,8.7-24,11c-8.7,2.5-17.8,3.8-26.9,3.8c-12.5,0-23.7-2.6-33.6-7.8
	c-9.6-4.9-17.7-12.4-23.3-21.7c-11.2-19.6-11.2-43.7,0-63.3c5.6-9.3,13.8-16.8,23.5-21.7c10.1-5.2,21.4-7.8,34.2-7.8
	c11.5,0,21.7,1.9,30.8,5.8c8.8,3.6,16.6,9.4,22.6,16.8l-25.2,22.2c-7.3-8.6-16.1-12.9-26.2-12.9c-8.7,0-15.6,2.6-20.7,7.9
	s-7.7,12.4-7.7,21.4c0,8.8,2.5,15.9,7.6,21.2c5.1,5.4,11.8,8,20.3,8c4.9,0,9.8-0.9,14.4-2.8L936.2,351.9z"/>
<path class="st0" d="M1084.5,383.8v29.7h-97.2V296.6h95v29.7h-56.3v13.7h49.4v28.4h-49.4v15.4H1084.5z"/>
<path class="st0" d="M1288.3,296.6l-37.4,116.9h-42.2l-18.9-62.5l-19.9,62.5h-42.2l-37.4-116.9h40.6l20.4,66.5l21.5-66.5h36.2
	l20.4,67.3l21.5-67.3L1288.3,296.6z"/>
<path class="st0" d="M1394.1,383.8v29.7H1297V296.6h95v29.7h-56.3v13.7h49.4v28.4h-49.4v15.4H1394.1z"/>
<path class="st0" d="M1409.3,296.6h39.4V383h52.8v30.6h-92.2V296.6z"/>
<path class="st0" d="M1512.4,296.6h57.6c13,0,24.5,2.4,34.5,7.1c9.5,4.4,17.6,11.4,23.2,20.2c5.5,8.8,8.3,19.1,8.3,31.1
	c0,11.9-2.8,22.3-8.3,31.1c-5.6,8.9-13.7,15.9-23.2,20.3c-10,4.7-21.5,7.1-34.5,7.1h-57.6V296.6z M1568.3,382.8
	c8.5,0,15.2-2.4,20.3-7.3c5.1-4.8,7.6-11.7,7.6-20.5s-2.5-15.6-7.6-20.5s-11.8-7.3-20.3-7.3h-16.5v55.4H1568.3z"/>
<path d="M240.2,306c7.6,3.2,14,8.5,18.5,15.4c4.3,6.7,6.5,14.5,6.5,23.4c0.6,16.9-9.4,32.3-25.1,38.7c-8,3.6-17.4,5.3-28.2,5.3
	h-16.9v28.7h-39.4V300.6H212C222.8,300.6,232.2,302.4,240.2,306z M221.5,354.9c2.7-2.4,4-5.8,4-10.1c0-4.4-1.3-7.7-4-10.1
	s-6.7-3.6-12-3.6h-14.4v27.4h14.4C214.8,358.4,218.8,357.2,221.5,354.9L221.5,354.9z"/>
<path d="M421.4,300.6h39.4V387h52.8v30.6h-92.2V300.6z"/>
<path d="M524.4,300.6h39.4v116.9h-39.4V300.6z"/>
<path d="M608.2,331.2H574v-30.6h107.9v30.6h-34.2v86.3h-39.4V331.2z"/>
<path d="M692.1,300.6h39.4v116.9h-39.4V300.6z"/>
<path d="M847.7,387.8v29.7h-97.2V300.6h95v29.7h-56.2v13.7h49.4v28.4h-49.4v15.4H847.7z"/>
<path d="M940.2,355.9h34.2v49.4c-7.3,5-15.5,8.7-24,11c-8.7,2.5-17.8,3.8-26.9,3.8c-12.5,0-23.7-2.6-33.6-7.8
	c-9.6-4.9-17.7-12.4-23.3-21.7c-11.2-19.6-11.2-43.7,0-63.3c5.6-9.3,13.8-16.8,23.5-21.7c10.1-5.2,21.4-7.8,34.2-7.8
	c11.5,0,21.7,1.9,30.8,5.8c8.8,3.6,16.6,9.4,22.6,16.8l-25.2,22.2c-7.3-8.6-16.1-12.9-26.2-12.9c-8.7,0-15.6,2.6-20.7,7.9
	s-7.7,12.4-7.7,21.4c0,8.8,2.5,15.9,7.6,21.2c5.1,5.4,11.8,8,20.3,8c4.9,0,9.8-0.9,14.4-2.8L940.2,355.9z"/>
<path d="M1088.5,387.8v29.7h-97.2V300.6h95v29.7h-56.3v13.7h49.4v28.4h-49.4v15.4H1088.5z"/>
<path d="M1292.3,300.6l-37.4,116.9h-42.2l-18.9-62.5l-19.9,62.5h-42.2l-37.4-116.9h40.6l20.4,66.5l21.5-66.5h36.2l20.4,67.3
	l21.5-67.3L1292.3,300.6z"/>
<path d="M1398.1,387.8v29.7H1301V300.6h95v29.7h-56.3v13.7h49.4v28.4h-49.4v15.4H1398.1z"/>
<path d="M1413.3,300.6h39.4V387h52.8v30.6h-92.2V300.6z"/>
<path d="M1516.4,300.6h57.6c13,0,24.5,2.4,34.5,7.1c9.5,4.4,17.6,11.4,23.2,20.2c5.5,8.8,8.3,19.1,8.3,31.1
	c0,11.9-2.8,22.3-8.3,31.1c-5.6,8.9-13.7,15.9-23.2,20.3c-10,4.7-21.5,7.1-34.5,7.1h-57.6V300.6z M1572.3,386.8
	c8.5,0,15.2-2.4,20.3-7.3c5.1-4.8,7.6-11.7,7.6-20.5s-2.5-15.6-7.6-20.5c-5.1-4.8-11.8-7.3-20.3-7.3h-16.5v55.4H1572.3z"/>
<polyline class="st1" points="61,784.2 1.6,163.6 1697.3,1.5 "/>
<polyline class="st2" points="1697.3,1.5 1756.6,622.1 61,784.2 "/>
<g class="st3">
	<path d="M148.8,505c0-3.8,0.9-7,2.8-9.8c1.8-2.8,5.1-5.6,9.9-8.3c-2.7-3.2-4.6-5.9-5.6-8.1s-1.5-4.5-1.5-6.8
		c0-4.4,1.6-7.8,4.7-10.3c3.1-2.5,7.3-3.8,12.5-3.8c5.1,0,9.1,1.2,11.9,3.7c2.9,2.4,4.3,5.8,4.3,9.9c0,3.3-1,6.2-2.9,8.9
		s-5.2,5.3-9.7,8l14.9,14.4c2.3-3.1,4.3-7.6,5.8-13.5h10.4c-2,8.1-5.2,14.8-9.6,19.9l12.9,12.5h-13l-6.4-6.2c-2.9,2.3-6,4.1-9.3,5.3
		s-7,1.8-11,1.8c-6.6,0-11.8-1.6-15.5-4.7C150.6,514.7,148.8,510.4,148.8,505z M170.4,513.8c5.2,0,9.7-1.5,13.4-4.6L167.4,493
		c-3,1.9-5.1,3.8-6.3,5.5c-1.1,1.7-1.7,3.6-1.7,5.8c0,2.8,1,5.1,3,6.9C164.4,512.9,167.1,513.8,170.4,513.8z M164,472.4
		c0,1.8,0.5,3.5,1.4,5.1c1,1.6,2.3,3.3,4,5.1c3.2-1.8,5.5-3.5,6.8-5.1c1.3-1.6,2-3.4,2-5.3c0-1.9-0.6-3.4-1.9-4.5s-2.9-1.7-5-1.7
		c-2.3,0-4.1,0.6-5.4,1.7S164,470.4,164,472.4z"/>
	<path d="M255.9,522.5c-5.9,0-10.6-2.1-13.9-6.4c-3.3-4.3-5-10.3-5-18.1c0-7.8,1.7-13.9,5-18.2c3.4-4.3,8-6.5,14-6.5
		c6.2,0,11,2.3,14.3,6.9h0.5c-0.5-3.4-0.7-6.1-0.7-8.1v-17.3h10.1v66.9h-7.9l-1.8-6.2h-0.5C266.9,520.1,262.1,522.5,255.9,522.5z
		 M258.6,514.3c4.2,0,7.2-1.2,9.1-3.5c1.9-2.3,2.9-6.1,2.9-11.4v-1.4c0-6-1-10.2-2.9-12.8c-1.9-2.5-5-3.8-9.2-3.8
		c-3.6,0-6.3,1.4-8.2,4.3c-1.9,2.9-2.9,7-2.9,12.3c0,5.3,0.9,9.3,2.8,12.1C252.1,513,254.9,514.3,258.6,514.3z"/>
	<path d="M315.4,522.5c-7.4,0-13.2-2.2-17.3-6.5c-4.2-4.3-6.3-10.2-6.3-17.8c0-7.8,1.9-13.9,5.8-18.3c3.9-4.4,9.2-6.7,15.9-6.7
		c6.3,0,11.2,1.9,14.9,5.7c3.6,3.8,5.5,9.1,5.5,15.7v5.5h-31.7c0.1,4.6,1.4,8.2,3.7,10.6c2.3,2.5,5.7,3.7,9.9,3.7
		c2.8,0,5.4-0.3,7.8-0.8c2.4-0.5,5-1.4,7.8-2.6v8.2c-2.5,1.2-5,2-7.5,2.5C321.6,522.3,318.7,522.5,315.4,522.5z M313.6,480.9
		c-3.2,0-5.8,1-7.7,3.1c-1.9,2-3.1,5-3.5,8.9H324c-0.1-3.9-1-6.9-2.8-8.9C319.3,481.9,316.8,480.9,313.6,480.9z"/>
	<path d="M410.4,497.8c0,7.8-2,13.8-6,18.2c-4,4.4-9.5,6.5-16.6,6.5c-4.4,0-8.4-1-11.8-3c-3.4-2-6-4.9-7.9-8.6
		c-1.8-3.8-2.8-8.1-2.8-13.1c0-7.7,2-13.7,5.9-18c4-4.3,9.5-6.5,16.7-6.5c6.9,0,12.3,2.2,16.3,6.6
		C408.4,484.3,410.4,490.3,410.4,497.8z M375.8,497.8c0,11,4.1,16.5,12.2,16.5c8,0,12-5.5,12-16.5c0-10.9-4-16.3-12.1-16.3
		c-4.2,0-7.3,1.4-9.2,4.2C376.8,488.5,375.8,492.6,375.8,497.8z"/>
	<path d="M463.8,521.7h-10.1v-29.2c0-3.7-0.7-6.4-2.2-8.2c-1.5-1.8-3.8-2.7-7-2.7c-4.3,0-7.4,1.3-9.4,3.8c-2,2.5-3,6.7-3,12.7v23.7
		H422v-47.5h7.9l1.4,6.2h0.5c1.4-2.3,3.5-4,6.1-5.2c2.6-1.2,5.6-1.8,8.8-1.8c11.4,0,17.1,5.8,17.1,17.4V521.7z"/>
	<path d="M495.6,514.3c2.5,0,4.9-0.4,7.4-1.2v7.6c-1.1,0.5-2.6,0.9-4.3,1.2c-1.8,0.3-3.6,0.5-5.5,0.5c-9.6,0-14.4-5-14.4-15.1v-25.6
		h-6.5v-4.5l7-3.7l3.4-10.1h6.2v10.6h13.5v7.6h-13.5v25.4c0,2.4,0.6,4.2,1.8,5.4C492,513.8,493.6,514.3,495.6,514.3z"/>
	<path d="M536.7,473.3c5.9,0,10.5,2.1,13.9,6.4s5,10.3,5,18.1c0,7.8-1.7,13.9-5,18.2s-8,6.5-14,6.5c-6,0-10.7-2.2-14-6.5h-0.7
		l-1.8,5.6h-7.6v-66.9h10.1v15.9c0,1.2-0.1,2.9-0.2,5.2c-0.1,2.3-0.2,3.8-0.3,4.4h0.4C525.8,475.6,530.5,473.3,536.7,473.3z
		 M534.1,481.5c-4.1,0-7,1.2-8.8,3.6c-1.8,2.4-2.7,6.4-2.8,12v0.7c0,5.8,0.9,10,2.8,12.6c1.8,2.6,4.8,3.9,9,3.9
		c3.6,0,6.3-1.4,8.1-4.3s2.8-6.9,2.8-12.3C545.2,486.9,541.5,481.5,534.1,481.5z"/>
	<path d="M591.4,473.3c2,0,3.7,0.1,5,0.4l-1,9.4c-1.4-0.3-2.9-0.5-4.5-0.5c-4,0-7.3,1.3-9.8,4c-2.5,2.6-3.8,6.1-3.8,10.3v24.8h-10.1
		v-47.5h7.9l1.3,8.4h0.5c1.6-2.8,3.6-5.1,6.2-6.7C585.7,474.1,588.5,473.3,591.4,473.3z"/>
	<path d="M626,522.5c-7.4,0-13.2-2.2-17.3-6.5c-4.2-4.3-6.3-10.2-6.3-17.8c0-7.8,1.9-13.9,5.8-18.3c3.9-4.4,9.2-6.7,15.9-6.7
		c6.3,0,11.2,1.9,14.9,5.7c3.6,3.8,5.5,9.1,5.5,15.7v5.5h-31.7c0.1,4.6,1.4,8.2,3.7,10.6c2.3,2.5,5.7,3.7,9.9,3.7
		c2.8,0,5.4-0.3,7.8-0.8c2.4-0.5,5-1.4,7.8-2.6v8.2c-2.5,1.2-5,2-7.5,2.5C632.1,522.3,629.2,522.5,626,522.5z M624.1,480.9
		c-3.2,0-5.8,1-7.7,3.1c-1.9,2-3.1,5-3.5,8.9h21.6c-0.1-3.9-1-6.9-2.8-8.9C629.9,481.9,627.3,480.9,624.1,480.9z"/>
	<path d="M665.7,496.6l5.7-7.1l14.4-15.3h11.6l-19.1,20.4l20.3,27.1h-11.9l-15.3-20.8l-5.5,4.6v16.3h-10v-66.9h10v32.6l-0.5,9.2
		H665.7z"/>
	<path d="M727,522.5c-7.4,0-13.2-2.2-17.3-6.5c-4.2-4.3-6.3-10.2-6.3-17.8c0-7.8,1.9-13.9,5.8-18.3c3.9-4.4,9.2-6.7,15.9-6.7
		c6.3,0,11.2,1.9,14.9,5.7c3.6,3.8,5.5,9.1,5.5,15.7v5.5h-31.7c0.1,4.6,1.4,8.2,3.7,10.6c2.3,2.5,5.7,3.7,9.9,3.7
		c2.8,0,5.4-0.3,7.8-0.8c2.4-0.5,5-1.4,7.8-2.6v8.2c-2.5,1.2-5,2-7.5,2.5C733.1,522.3,730.2,522.5,727,522.5z M725.1,480.9
		c-3.2,0-5.8,1-7.7,3.1c-1.9,2-3.1,5-3.5,8.9h21.6c-0.1-3.9-1-6.9-2.8-8.9C730.9,481.9,728.4,480.9,725.1,480.9z"/>
	<path d="M798.8,521.7h-10.1v-29.2c0-3.7-0.7-6.4-2.2-8.2c-1.5-1.8-3.8-2.7-7-2.7c-4.3,0-7.4,1.3-9.4,3.8c-2,2.5-3,6.7-3,12.7v23.7
		h-10.1v-47.5h7.9l1.4,6.2h0.5c1.4-2.3,3.5-4,6.1-5.2c2.6-1.2,5.6-1.8,8.8-1.8c11.4,0,17.1,5.8,17.1,17.4V521.7z"/>
	<path d="M851.7,522.5c-5.9,0-10.6-2.1-13.9-6.4c-3.3-4.3-5-10.3-5-18.1c0-7.8,1.7-13.9,5-18.2c3.4-4.3,8-6.5,14-6.5
		c6.2,0,11,2.3,14.3,6.9h0.5c-0.5-3.4-0.7-6.1-0.7-8.1v-17.3h10.1v66.9h-7.9l-1.8-6.2h-0.5C862.7,520.1,857.9,522.5,851.7,522.5z
		 M854.4,514.3c4.2,0,7.2-1.2,9.1-3.5c1.9-2.3,2.9-6.1,2.9-11.4v-1.4c0-6-1-10.2-2.9-12.8c-1.9-2.5-5-3.8-9.2-3.8
		c-3.6,0-6.3,1.4-8.2,4.3c-1.9,2.9-2.9,7-2.9,12.3c0,5.3,0.9,9.3,2.8,12.1C847.9,513,850.7,514.3,854.4,514.3z"/>
	<path d="M911.2,522.5c-7.4,0-13.2-2.2-17.3-6.5c-4.2-4.3-6.3-10.2-6.3-17.8c0-7.8,1.9-13.9,5.8-18.3c3.9-4.4,9.2-6.7,15.9-6.7
		c6.3,0,11.2,1.9,14.9,5.7c3.6,3.8,5.5,9.1,5.5,15.7v5.5h-31.7c0.1,4.6,1.4,8.2,3.7,10.6c2.3,2.5,5.7,3.7,9.9,3.7
		c2.8,0,5.4-0.3,7.8-0.8c2.4-0.5,5-1.4,7.8-2.6v8.2c-2.5,1.2-5,2-7.5,2.5S914.5,522.5,911.2,522.5z M909.4,480.9
		c-3.2,0-5.8,1-7.7,3.1c-1.9,2-3.1,5-3.5,8.9h21.6c-0.1-3.9-1-6.9-2.8-8.9S912.6,480.9,909.4,480.9z"/>
	<path d="M983.2,522.5c-7.2,0-12.7-2.1-16.4-6.3c-3.7-4.2-5.6-10.2-5.6-18.1c0-8,2-14.1,5.9-18.4s9.6-6.4,17-6.4
		c5,0,9.5,0.9,13.5,2.8l-3.1,8.1c-4.3-1.7-7.8-2.5-10.6-2.5c-8.2,0-12.3,5.5-12.3,16.4c0,5.3,1,9.3,3.1,12c2,2.7,5,4,9,4
		c4.5,0,8.8-1.1,12.8-3.4v8.8c-1.8,1.1-3.7,1.8-5.8,2.3S986.1,522.5,983.2,522.5z"/>
	<path d="M1007,461.5c0-1.8,0.5-3.2,1.5-4.2c1-1,2.4-1.5,4.2-1.5c1.8,0,3.2,0.5,4.1,1.5c1,1,1.5,2.4,1.5,4.2c0,1.7-0.5,3.1-1.5,4.1
		s-2.4,1.5-4.1,1.5c-1.8,0-3.2-0.5-4.2-1.5S1007,463.3,1007,461.5z M1017.7,521.7h-10.1v-47.5h10.1V521.7z"/>
	<path d="M1027.3,542.8c-3,0-5.6-0.4-7.6-1.1v-8c1.9,0.5,3.9,0.8,6,0.8c4.3,0,6.4-2.4,6.4-7.3v-53.1h10.1v53.8
		c0,4.9-1.3,8.6-3.8,11.1C1035.8,541.5,1032.1,542.8,1027.3,542.8z M1031.6,461.5c0-1.8,0.5-3.2,1.5-4.2c1-1,2.4-1.5,4.2-1.5
		c1.8,0,3.2,0.5,4.1,1.5c1,1,1.5,2.4,1.5,4.2c0,1.7-0.5,3.1-1.5,4.1s-2.4,1.5-4.1,1.5c-1.8,0-3.2-0.5-4.2-1.5
		S1031.6,463.3,1031.6,461.5z"/>
	<path d="M1080.5,481.8h-11.6v39.9h-10.1v-39.9h-7.8V477l7.8-3.1v-3.1c0-5.6,1.3-9.8,4-12.5s6.7-4.1,12.1-4.1c3.6,0,7,0.6,10.5,1.8
		l-2.7,7.6c-2.5-0.8-4.9-1.2-7.1-1.2c-2.3,0-4,0.7-5,2.1s-1.6,3.5-1.6,6.4v3.1h11.6V481.8z"/>
	<path d="M1109.4,522.5c-7.4,0-13.2-2.2-17.3-6.5c-4.2-4.3-6.3-10.2-6.3-17.8c0-7.8,1.9-13.9,5.8-18.3c3.9-4.4,9.2-6.7,15.9-6.7
		c6.3,0,11.2,1.9,14.9,5.7c3.6,3.8,5.5,9.1,5.5,15.7v5.5h-31.7c0.1,4.6,1.4,8.2,3.7,10.6c2.3,2.5,5.7,3.7,9.9,3.7
		c2.8,0,5.4-0.3,7.8-0.8c2.4-0.5,5-1.4,7.8-2.6v8.2c-2.5,1.2-5,2-7.5,2.5C1115.5,522.3,1112.6,522.5,1109.4,522.5z M1107.5,480.9
		c-3.2,0-5.8,1-7.7,3.1c-1.9,2-3.1,5-3.5,8.9h21.6c-0.1-3.9-1-6.9-2.8-8.9C1113.3,481.9,1110.7,480.9,1107.5,480.9z"/>
	<path d="M1163.4,473.3c2,0,3.7,0.1,5,0.4l-1,9.4c-1.4-0.3-2.9-0.5-4.5-0.5c-4,0-7.3,1.3-9.8,4c-2.5,2.6-3.8,6.1-3.8,10.3v24.8
		h-10.1v-47.5h7.9l1.3,8.4h0.5c1.6-2.8,3.6-5.1,6.2-6.7C1157.8,474.1,1160.5,473.3,1163.4,473.3z"/>
	<path d="M1209.2,508.1c0,4.6-1.7,8.2-5.1,10.7c-3.4,2.5-8.2,3.7-14.5,3.7c-6.3,0-11.4-1-15.3-2.9v-8.7c5.6,2.6,10.8,3.9,15.6,3.9
		c6.2,0,9.3-1.9,9.3-5.6c0-1.2-0.3-2.2-1-3c-0.7-0.8-1.8-1.6-3.4-2.5c-1.6-0.9-3.8-1.8-6.6-2.9c-5.5-2.1-9.2-4.2-11.1-6.4
		c-1.9-2.1-2.9-4.9-2.9-8.2c0-4.1,1.6-7.2,4.9-9.5c3.3-2.2,7.7-3.4,13.4-3.4c5.6,0,10.9,1.1,15.9,3.4l-3.3,7.6
		c-5.1-2.1-9.4-3.2-12.9-3.2c-5.3,0-8,1.5-8,4.6c0,1.5,0.7,2.8,2.1,3.8c1.4,1,4.4,2.4,9.1,4.3c3.9,1.5,6.8,2.9,8.6,4.2
		c1.8,1.3,3.1,2.7,4,4.4C1208.8,503.9,1209.2,505.8,1209.2,508.1z"/>
</g>
<path class="st4" d="M305.9,240.3c-0.3,0.1-0.6,0.3-0.8,0.5l-9.9,8.7c-0.7,0.6-1,1.5-0.7,2.4c1.6,5.7,3.1,10,6,13.4
	c2.9,3.4,7.1,5.5,13.1,7c0.8,0.2,1.6,0,2.2-0.6c4.4-4.3,6.9-8.3,7.7-12.7c0.8-4.4-0.1-8.9-1.6-14.6c-0.2-0.9-1-1.5-1.8-1.7l-13-2.5
	C306.6,240.1,306.2,240.1,305.9,240.3L305.9,240.3z M307.3,245l10.3,2c1.2,4.6,1.7,8.2,1.2,11.1c-0.5,2.8-2.5,5.9-5.5,9.2
	c-4.2-1.3-7.5-3-9.3-5.1c-1.9-2.2-3.1-5.8-4.5-10.3L307.3,245z"/>
<path d="M375.2,305.9c-0.3,0.3-0.6,0.5-0.9,0.8c1.1-1.8,1.6-3.7,1-5.7c-0.6-2.3-2.4-3.8-4.7-4.8l-1.7-6.1l13.8-27.5
	c0.4-0.9,0.3-1.9-0.3-2.6l-21.2-23.7c-0.4-0.4-0.9-0.7-1.5-0.8l-55.9-6.8c-0.3,0-0.6,0-0.9,0.1l0,0c-0.3,0.1-0.6,0.2-0.8,0.4
	l-44.7,34.3c-0.5,0.3-0.8,0.8-0.9,1.4l-6.2,31.2c-0.2,1,0.2,1.9,1,2.5l26.2,16.8l1.5,5.5c-1.7,2.2-2.7,4.6-2,7.1
	c0.6,2,2,3.4,3.9,4.4c-14.6,29.3-3,64.9,26.2,80c10,5.2,21.3,7.8,33.9,7.8c12.6,0,23.9-2.6,33.9-7.8c11.1-5.7,20.1-14.7,25.8-25.8
	C415.9,357.2,404.4,321.2,375.2,305.9z M370.7,302.4c0.2,0.6-0.1,1.8-1.8,3.7c-1.7,1.9-4.6,4.1-8.4,6.3c-7.6,4.4-18.8,9-31.6,12.5
	c-12.8,3.5-24.7,5.3-33.5,5.3c-4.4,0-8-0.4-10.4-1.2c-2.4-0.7-3.3-1.7-3.4-2.2c-0.2-0.6,0.1-1.8,1.8-3.7c1.7-1.9,4.6-4.1,8.4-6.3
	c7.6-4.4,18.8-9,31.5-12.5c12.8-3.5,24.7-5.2,33.5-5.3c4.4,0,8,0.4,10.4,1.2C369.7,300.9,370.6,301.8,370.7,302.4z M284.4,312.1
	c1.4-2.2,3.9-4.6,7.2-7c6.7-4.8,16.8-9.5,28.5-12.8c11.7-3.2,22.9-4.3,31.2-3.5c4.1,0.4,7.6,1.2,9.9,2.4c2.3,1.1,3.5,2.4,3.9,3.7
	c-2.4-0.4-5.2-0.6-8.3-0.6c-9.4,0-21.6,1.9-34.8,5.4c-13.1,3.6-24.6,8.2-32.7,13c-2.5,1.5-4.6,2.9-6.4,4.4
	C282.7,315.7,283,314.1,284.4,312.1z M277.4,298.6c-1.9,2.9-2.9,6-2,9.1c0,0,0,0,0,0l0.2,0.8l-20.3-13.1l5.7-28.7l43.2-33.2
	l54.1,6.6l19.5,21.8L367,283.4l-0.2-0.7c-0.9-3-3.3-5.3-6.4-6.8c-3.1-1.5-7-2.4-11.5-2.7c-9-0.8-20.6,0.5-32.8,3.8l0,0
	c-12.2,3.3-22.8,8.2-30.1,13.4C282.2,293,279.3,295.7,277.4,298.6z M279.9,306.5c-0.4-1.4,0-3.1,1.4-5.2c1.4-2.2,3.9-4.6,7.3-7
	c6.7-4.8,16.9-9.5,28.6-12.7c11.8-3.2,22.9-4.3,31.1-3.6c4.1,0.4,7.5,1.2,9.9,2.3c2.3,1.1,3.5,2.4,3.9,3.8l0.8,2.7
	c-3.1-1.4-6.8-2.3-11.2-2.7c-9.1-0.8-20.7,0.4-32.9,3.7l0,0c-12.2,3.3-22.7,8.2-30,13.5c-3.5,2.5-6.3,5.2-8.2,7.9L279.9,306.5z
	 M363.8,374.5c-2.2,4.2-5.4,7.7-9.4,10.2c-8.2,4.8-18.3,4.8-26.5,0c-4-2.5-7.3-6-9.4-10.2c-4.7-9.8-4.7-21.1,0-30.9
	c2.2-4.2,5.4-7.7,9.4-10.2c8.2-4.8,18.3-4.8,26.5,0c4,2.5,7.3,6,9.4,10.2C368.4,353.4,368.4,364.8,363.8,374.5z"/>
</svg>
