<svg xmlns="http://www.w3.org/2000/svg" viewBox="0 0 54.57 41.79"><defs><style>.cls-1{fill:#57d1f9;}.cls-1,.cls-4{fill-rule:evenodd;}.cls-2{fill:#fff;}.cls-3,.cls-4{fill:#fef33d;}</style></defs><title>Asset 13</title><g id="Layer_2" data-name="Layer 2"><g id="Layer_1-2" data-name="Layer 1"><path class="cls-1" d="M28.05,6.18a.74.74,0,0,0-.36.09L23.13,8.5a.9.9,0,0,0-.52.82,12.6,12.6,0,0,0,.88,5.59,9.12,9.12,0,0,0,4.16,3.93.89.89,0,0,0,.89,0,9.22,9.22,0,0,0,4.16-3.93,12.75,12.75,0,0,0,.87-5.59.91.91,0,0,0-.51-.82L28.49,6.27a.85.85,0,0,0-.44-.09Zm0,1.92,3.64,1.79a10.71,10.71,0,0,1-.68,4.24,7.69,7.69,0,0,1-3,2.84,7.62,7.62,0,0,1-2.95-2.84,11.09,11.09,0,0,1-.61-4.28Z"/><path class="cls-2" d="M54.34,22.31a.93.93,0,0,0,.14-1L49,10.33a.94.94,0,0,0-.47-.43L28.44,1.68a.92.92,0,0,0-.36-.07h0a.8.8,0,0,0-.34.07L7.66,9.9a.88.88,0,0,0-.48.43l-5.47,11a.91.91,0,0,0,.13,1l8,8.92,0,2.18a3.11,3.11,0,0,0-1.48,2.44,3.4,3.4,0,0,0,1.9,2.73,15.33,15.33,0,0,0,4.26,1.7A54.13,54.13,0,0,0,28,41.79a54.15,54.15,0,0,0,13.48-1.51,15.33,15.33,0,0,0,4.26-1.7,3.4,3.4,0,0,0,1.9-2.73,3,3,0,0,0-1.26-2.26l0-2.46ZM3.62,21.55l5-10.09,19.43-8,19.43,8,5,10.09-6.19,6.88v-.3A4.35,4.35,0,0,0,44.68,25a13.16,13.16,0,0,0-4-2.19,37.82,37.82,0,0,0-12.58-1.92h0a37.79,37.79,0,0,0-12.57,1.93,13,13,0,0,0-4,2.2,4.27,4.27,0,0,0-1.68,3.17v.33Zm8.05,6.61a2.47,2.47,0,0,1,1.05-1.8,11.3,11.3,0,0,1,3.44-1.86,35.8,35.8,0,0,1,11.93-1.82,36.21,36.21,0,0,1,12,1.81,11.3,11.3,0,0,1,3.44,1.86,2.51,2.51,0,0,1,1.07,1.8v1.08a13.08,13.08,0,0,0-3.89-2.13,37.12,37.12,0,0,0-12.59-2h0a36.65,36.65,0,0,0-12.54,2,13,13,0,0,0-3.85,2.12Zm1.09,2.54a11.29,11.29,0,0,1,3.41-1.89A35.23,35.23,0,0,1,28.07,27a35.5,35.5,0,0,1,12,1.85,11.58,11.58,0,0,1,3.45,1.88,2.58,2.58,0,0,1,1.06,1.78,19.2,19.2,0,0,0-3-1.06A54.2,54.2,0,0,0,28,29.92a54.17,54.17,0,0,0-13.47,1.5,20.85,20.85,0,0,0-2.84,1A2.59,2.59,0,0,1,12.76,30.7ZM44.81,37a14.47,14.47,0,0,1-3.76,1.48A52.77,52.77,0,0,1,28,40a52.59,52.59,0,0,1-13-1.44A14.33,14.33,0,0,1,11.29,37c-.82-.53-1-1-1-1.19s.23-.66,1-1.18a14.29,14.29,0,0,1,3.76-1.49,52.59,52.59,0,0,1,13-1.44,52.77,52.77,0,0,1,13,1.44,14.44,14.44,0,0,1,3.76,1.49c.82.52,1,.95,1,1.18S45.63,36.51,44.81,37Z"/><path class="cls-3" d="M48.91,9.17A1.72,1.72,0,0,0,48,8.35L27.94.13A1.68,1.68,0,0,0,27.26,0h0a1.6,1.6,0,0,0-.62.13L6.55,8.35a1.74,1.74,0,0,0-.89.82l-5.48,11A1.7,1.7,0,0,0,.44,22l7.83,8.7v1.48A3.67,3.67,0,0,0,6.8,35.05a4.1,4.1,0,0,0,2.27,3.4,16.4,16.4,0,0,0,4.49,1.81,55.45,55.45,0,0,0,13.68,1.53c.14,0-9.26-.59-12.67-1.51a15.33,15.33,0,0,1-4.26-1.7,3.4,3.4,0,0,1-1.9-2.73,3.11,3.11,0,0,1,1.48-2.44l0-2.18-8-8.92a.91.91,0,0,1-.13-1l5.47-11a.88.88,0,0,1,.48-.43L27.74,1.68a.8.8,0,0,1,.34-.07h0a.92.92,0,0,1,.36.07L48.53,9.9a.94.94,0,0,1,.47.43Z"/><path class="cls-4" d="M28.05,6.18a.74.74,0,0,0-.36.09L23.13,8.5a.9.9,0,0,0-.52.82,12.6,12.6,0,0,0,.88,5.59,9.12,9.12,0,0,0,4.16,3.93.89.89,0,0,0,.89,0,9.22,9.22,0,0,0,4.16-3.93,12.75,12.75,0,0,0,.87-5.59.91.91,0,0,0-.51-.82L28.49,6.27a.85.85,0,0,0-.44-.09Zm0,1.92,3.64,1.79a10.71,10.71,0,0,1-.68,4.24,7.69,7.69,0,0,1-3,2.84,7.62,7.62,0,0,1-2.95-2.84,11.09,11.09,0,0,1-.61-4.28Z"/></g></g></svg>