<svg xmlns="http://www.w3.org/2000/svg" viewBox="0 0 84.5 80.61"><defs><style>.cls-1{fill:none;stroke:#fff;stroke-miterlimit:10;}.cls-2{fill:#fff;}.cls-3{fill:#fef33d;}</style></defs><title>Asset 11</title><g id="Layer_2" data-name="Layer 2"><g id="Layer_1-2" data-name="Layer 1"><rect class="cls-1" x="1" y="0.5" width="83" height="79.61" rx="39.81"/><path class="cls-2" d="M5.22,78.59a2.58,2.58,0,0,1-1.72-.73L2.25,76.61a2.3,2.3,0,0,1,0-3.35L58.37,17.14a2.3,2.3,0,0,1,3.35,0L63,18.39A2.29,2.29,0,0,1,63.7,20,2.65,2.65,0,0,1,63,21.75s-24,24-29.93,29.92l-.64.65-4.35,4.34a1.09,1.09,0,0,0-.37.77,1.43,1.43,0,0,0,.37.86L36.78,67c.15.15.56.25,1.68-.1a.74.74,0,0,1,.83.11,3.78,3.78,0,0,1,1.07,4,5,5,0,0,1-1.08,1.79L38,74.12A3.75,3.75,0,0,1,34,75.2a5,5,0,0,1-1.8-1.08l-.29-.3.16-.38c.24-.54.45-1.5.13-1.81L23.45,62.9a1.08,1.08,0,0,0-1.63,0l-15,15A2.27,2.27,0,0,1,5.22,78.59ZM60,17.63a1.1,1.1,0,0,0-.8.37L3.11,74.12a1.09,1.09,0,0,0,0,1.63L4.36,77A1.09,1.09,0,0,0,6,77L21,62a2.3,2.3,0,0,1,3.35,0L33,70.76a2.75,2.75,0,0,1,.29,2.74,2.72,2.72,0,0,0,3.84-.24L38.41,72a2.81,2.81,0,0,0,.24-3.87c-.68.2-2,.51-2.73-.26l-8.73-8.73a2.63,2.63,0,0,1-.73-1.72,2.29,2.29,0,0,1,.73-1.63l4.34-4.34.65-.65L62.11,20.88a1.08,1.08,0,0,0,0-1.63L60.86,18A1.29,1.29,0,0,0,60,17.63Z"/><path class="cls-3" d="M40.36,71.08a5,5,0,0,1-1.08,1.79L38,74.12A3.75,3.75,0,0,1,34,75.2a5,5,0,0,1-1.8-1.08l-.29-.3.16-.38c.24-.54.45-1.5.13-1.81L23.45,62.9a1.08,1.08,0,0,0-1.63,0l-15,15a2.27,2.27,0,0,1-1.63.73,2.58,2.58,0,0,1-1.72-.73L2.25,76.61a2.3,2.3,0,0,1,0-3.35L58.37,17.14a2.3,2.3,0,0,1,3.35,0L63,18.39A2.29,2.29,0,0,1,63.7,20l.31-.61c0-.84-.35-1-1-1.67l-1.25-1.25a3.23,3.23,0,0,0-4.65,0L1,72.61a3.23,3.23,0,0,0,0,4.65l1.25,1.25a3.58,3.58,0,0,0,2.37,1,3.2,3.2,0,0,0,2.28-1l15-15c.16-.17.21-.12.33,0l8.63,8.63a2.85,2.85,0,0,1-.21.91l-.42,1,.73.73a5.84,5.84,0,0,0,2.16,1.31,4.72,4.72,0,0,0,5-1.3l1.24-1.25a5.84,5.84,0,0,0,1.31-2.16Z"/></g></g></svg>