<svg xmlns="http://www.w3.org/2000/svg" viewBox="0 0 84 79.61"><defs><style>.cls-1{fill:#fff;}</style></defs><title>Asset 22</title><g id="Layer_2" data-name="Layer 2"><g id="Layer_1-2" data-name="Layer 1"><rect class="cls-1" x="1" width="83" height="79.61" rx="39.81"/><path d="M63.33,17.54l-1.25-1.25a3,3,0,0,0-1.77-.86,2.73,2.73,0,0,0-2.3.86L1.9,72.4a2.82,2.82,0,0,0,0,4.07l1.24,1.24a3.1,3.1,0,0,0,2.08.88,2.78,2.78,0,0,0,2-.88l15-15a.77.77,0,0,1,.36-.21c.12,0,.31,0,.57.21l8.71,8.71a2.16,2.16,0,0,1-.22,1.28l-.3.7.54.53a5.39,5.39,0,0,0,2,1.21A4.24,4.24,0,0,0,38.38,74l1.25-1.24a5.46,5.46,0,0,0,1.2-2,4.29,4.29,0,0,0-1.18-4.54A1.2,1.2,0,0,0,38.31,66a3.94,3.94,0,0,1-1.1.22c-.06,0-.08,0-.08,0L31,60l-2.57-2.57a.9.9,0,0,1-.24-.52s0-.19.23-.41l5-5L63.32,21.6a3.09,3.09,0,0,0,.89-2.08A2.8,2.8,0,0,0,63.33,17.54ZM26,56.93A3.13,3.13,0,0,0,26.84,59l8.73,8.73a3,3,0,0,0,2.89.47,2.31,2.31,0,0,1-.4,3L36.81,72.4a2.15,2.15,0,0,1-2.9.4,3,3,0,0,0-.51-2.89l-8.73-8.73a2.77,2.77,0,0,0-2.3-.86,3.09,3.09,0,0,0-1.77.86l-15,15a.58.58,0,0,1-.93,0L3.47,74.9a.58.58,0,0,1,0-.93L59.58,17.86a.63.63,0,0,1,.45-.23.79.79,0,0,1,.48.23l1.25,1.25a.58.58,0,0,1,0,.92L31.83,50l-.65.64C29.8,52,27,54.84,26.84,54.94A2.79,2.79,0,0,0,26,56.93Z"/><path class="cls-1" d="M5.22,78.59a3.1,3.1,0,0,1-2.08-.88L1.9,76.47a2.82,2.82,0,0,1,0-4.07L58,16.29a2.73,2.73,0,0,1,2.3-.86,3,3,0,0,1,1.69.79V16a3.51,3.51,0,0,0-4.89,0L1,72.11a3.23,3.23,0,0,0,0,4.65L2.24,78a3.58,3.58,0,0,0,2.37,1,3.2,3.2,0,0,0,2.28-1l.17-.17A2.71,2.71,0,0,1,5.22,78.59Z"/><path class="cls-1" d="M38.07,74.27l-.38.33A1.7,1.7,0,0,0,38.07,74.27Z"/><path class="cls-1" d="M33.82,75.18a5.39,5.39,0,0,1-2-1.21l-.54-.53.3-.7a2.16,2.16,0,0,0,.22-1.28L23.1,62.75c-.26-.26-.45-.25-.57-.21a.77.77,0,0,0-.36.21L22,63c.09,0,.14,0,.22.09l8.63,8.63a2.85,2.85,0,0,1-.21.91l-.42,1,.73.73a5.84,5.84,0,0,0,2.16,1.31,4.62,4.62,0,0,0,4.61-1,1.4,1.4,0,0,1-.3.15A4.14,4.14,0,0,1,33.82,75.18Z"/></g></g></svg>