<svg xmlns="http://www.w3.org/2000/svg" viewBox="0 0 99.04 99.04"><defs><style>.cls-1{fill-rule:evenodd;}</style></defs><title>Whatsapp</title><g id="Layer_2" data-name="Layer 2"><g id="_16" data-name="16"><path d="M49.52,0a49.51,49.51,0,1,1-35,14.5A49.39,49.39,0,0,1,49.52,0ZM81.79,17.25A45.64,45.64,0,1,0,95.17,49.52,45.47,45.47,0,0,0,81.79,17.25Z"/><path class="cls-1" d="M74.77,48.26a24.81,24.81,0,0,0-49.57-.47,6.23,6.23,0,0,0-.06,1.07,24.59,24.59,0,0,0,3.57,12.72L24.21,74.8,38,70.44a25,25,0,0,0,12,3A24.72,24.72,0,0,0,74.8,48.86c0-.22,0-.38,0-.6ZM61.33,53.85c-.62-.3-3.59-1.78-4.14-2s-1-.3-1.39.33a29.55,29.55,0,0,1-1.92,2.33c-.36.44-.72.46-1.29.19a15.26,15.26,0,0,1-4.91-3,17.62,17.62,0,0,1-3.4-4.14c-.33-.65-.06-.93.25-1.29a6.48,6.48,0,0,0,.93-1,1.18,1.18,0,0,0,.22-.27,8,8,0,0,0,.38-.71,1,1,0,0,0-.05-1c-.11-.3-1.35-3.31-1.87-4.49s-1-1-1.34-1-.77-.05-1.18-.05a2.08,2.08,0,0,0-1.62.77,6.49,6.49,0,0,0-2.16,5,6.27,6.27,0,0,0,.35,2,13.75,13.75,0,0,0,2.14,4.2c.3.41,4.2,6.68,10.39,9.1S57,60.35,58,60.27s3.6-1.43,4.12-2.88a5,5,0,0,0,.33-2.88,3.45,3.45,0,0,0-1.16-.66ZM50,69.59A20.75,20.75,0,0,1,38.5,66.16l-8,2.55L33.07,61a20.51,20.51,0,0,1-4-12.15,16.64,16.64,0,0,1,.11-2,20.88,20.88,0,0,1,41.57.38c0,.55,0,1.1,0,1.62A20.83,20.83,0,0,1,50,69.59Z"/></g></g></svg>